<svg width="30" height="30" viewBox="0 0 30 30" fill="none" xmlns="http://www.w3.org/2000/svg">
<path d="M15 0C11.2797 0 8.23745 3.37402 8.23745 7.5C8.23745 8.74024 8.65571 10.0098 9.21045 11.4111C9.51424 12.1777 9.87085 12.9639 10.2451 13.75H3.99325L0 30H30L26.0068 13.75H19.7549C20.1291 12.9639 20.4858 12.1777 20.7896 11.4111C21.3443 10.0098 21.7625 8.74024 21.7625 7.5C21.7625 3.37402 18.7203 0 15 0ZM15 2.5C17.5007 2.5 19.5084 4.72656 19.5084 7.5C19.5084 7.9834 19.2222 9.14062 18.7203 10.4053C18.2228 11.6699 17.536 13.0957 16.8447 14.4141C15.9246 16.1768 15.5151 16.8018 15 17.6562C14.4849 16.8018 14.0754 16.1768 13.1553 14.4141C12.464 13.0957 11.7772 11.6699 11.2797 10.4053C10.7778 9.14062 10.4916 7.9834 10.4916 7.5C10.4916 4.72656 12.4993 2.5 15 2.5ZM15 5.625C14.0666 5.625 13.3094 6.46484 13.3094 7.5C13.3094 8.53516 14.0666 9.375 15 9.375C15.9334 9.375 16.6906 8.53516 16.6906 7.5C16.6906 6.46484 15.9334 5.625 15 5.625ZM5.71911 16.25H11.5175C12.8383 18.7207 14.071 20.708 14.071 20.708L15 22.2021L15.929 20.708C15.929 20.708 17.1617 18.7207 18.4825 16.25H24.2809L27.0502 27.5H2.94981L5.71911 16.25Z" fill="#727272"/>
</svg>
