<svg width="25" height="26" viewBox="0 0 25 26" fill="none" xmlns="http://www.w3.org/2000/svg">
<path d="M20.1875 0C19.1406 0 18.0938 0.423661 17.2812 1.27098L1.46875 17.7612L1.40625 18.0871L0.3125 23.8228L0 25.3545L1.46875 25.0286L6.96875 23.8879L7.28125 23.8228L23.0938 7.33259C24.7188 5.63795 24.7188 2.96563 23.0938 1.27098C22.2812 0.423661 21.2344 0 20.1875 0ZM20.1875 1.98795C20.6914 1.98795 21.1992 2.22829 21.6875 2.7375C22.6602 3.75184 22.6602 4.85173 21.6875 5.86607L20.9688 6.58304L18 3.48705L18.6875 2.7375C19.1758 2.22829 19.6836 1.98795 20.1875 1.98795ZM16.5938 4.95357L19.5625 8.04955L7.46875 20.6616C6.8125 19.3254 5.78125 18.25 4.5 17.5656L16.5938 4.95357ZM3.21875 19.2603C4.41797 19.7654 5.35938 20.7472 5.84375 21.9978L2.5625 22.6821L3.21875 19.2603Z" fill="#5B5B5B"/>
</svg>
