<svg width="600" height="600" viewBox="0 0 600 600" fill="none" xmlns="http://www.w3.org/2000/svg">
<circle cx="300" cy="300" r="300" fill="white"/>
<circle cx="300" cy="300" r="276.5" fill="white" stroke="#F66B0E" stroke-width="3" stroke-dasharray="19 19"/>
<path d="M251.941 130C247.26 130 243.391 133.878 243.391 138.569C243.391 143.26 247.26 146.99 251.941 146.99C252.475 146.99 253.047 146.935 253.563 146.842L260.197 153.491C252.697 162.503 248.108 174.119 248.108 186.732C248.108 199.346 252.697 210.962 260.197 219.974L240 240.067L246.781 246.863L266.83 226.622C275.823 234.139 287.414 238.737 300 238.737C312.586 238.737 324.177 234.139 333.17 226.622L353.219 246.863L360 240.067L339.803 219.974C343.968 214.969 347.156 209.17 349.238 202.836H349.681C349.644 202.541 349.57 202.245 349.533 201.95C351.007 197.148 351.892 192.014 351.892 186.732C351.892 174.119 347.303 162.503 339.803 153.491L346.437 146.842C346.99 146.953 347.469 146.99 348.059 146.99C352.74 146.99 356.609 143.26 356.609 138.569C356.609 133.878 352.74 130 348.059 130C343.378 130 339.656 133.878 339.656 138.569C339.656 139.16 339.693 139.64 339.803 140.194L333.17 146.842C324.177 139.326 312.586 134.728 300 134.728C287.488 134.728 275.952 139.271 266.978 146.695L260.197 140.046C260.27 139.585 260.344 139.068 260.344 138.569C260.344 133.878 256.622 130 251.941 130ZM309.435 145.365C310.061 145.513 310.725 145.642 311.351 145.808C296.038 155.134 285.848 169.798 285.848 186.732C285.848 203.649 296.093 218.312 311.351 227.656C310.725 227.823 310.061 227.952 309.435 228.1C290.326 223.003 276.413 206.493 276.413 186.732C276.413 166.972 290.362 150.481 309.435 145.365ZM286.88 146.251C283.028 149.299 279.711 152.807 276.855 156.741L273.612 153.491C277.555 150.351 281.978 147.84 286.88 146.251ZM322.26 150.536C332.709 157 340.172 167.803 342.015 180.527C340.485 178.016 338.679 175.578 336.708 173.288C329.926 165.384 321.394 159.825 312.088 156.741C315.184 154.414 318.52 152.309 322.26 150.536ZM266.978 160.139L271.843 165.162C268.765 171.718 266.978 179.05 266.978 186.732C266.978 194.433 268.765 201.746 271.843 208.302L266.83 213.178C261.063 205.92 257.543 196.779 257.543 186.732C257.543 176.612 261.136 167.434 266.978 160.139ZM303.833 164.276C313.6 166.289 322.574 171.312 329.484 179.345C334.975 185.754 338.495 193.233 339.951 201.063C339.453 202.448 338.808 203.723 338.182 205.052C335.915 200.306 333.077 195.745 329.484 191.608C321.026 181.875 310.025 175.781 298.231 172.992C299.631 169.908 301.566 167.009 303.833 164.276ZM295.725 182.005C299.576 182.891 303.262 184.258 306.781 185.994C305.326 187.951 303.686 189.798 301.769 191.46C300.129 192.882 298.305 194.064 296.462 195.154C295.688 192.402 295.283 189.632 295.283 186.732C295.283 185.144 295.504 183.556 295.725 182.005ZM314.889 190.869C317.267 192.679 319.423 194.766 321.523 197.074C319.367 200.491 316.695 203.649 313.563 206.382C311.241 208.395 308.661 209.965 306.044 211.405C303.796 209.078 301.88 206.64 300.295 204.018C303.022 202.467 305.565 200.638 307.961 198.552C310.633 196.225 312.899 193.639 314.889 190.869ZM327.568 205.052C329.41 208.118 330.885 211.368 331.99 214.655C329.244 217.832 325.983 220.546 322.408 222.781C319.367 221.341 316.493 219.697 313.857 217.906C315.921 216.576 317.875 215.117 319.754 213.473C322.703 210.906 325.319 208.118 327.568 205.052ZM276.855 216.724C279.711 220.657 283.028 224.166 286.88 227.213C281.978 225.625 277.555 223.113 273.612 219.974L276.855 216.724Z" fill="#F66B0E"/>
<path d="M148.88 324.36C148.053 324.36 147.32 324.147 146.68 323.72C146.013 323.32 145.573 322.707 145.36 321.88C145.333 321.827 145.32 321.76 145.32 321.68C145.32 321.6 145.32 321.533 145.32 321.48C145.32 321.08 145.413 320.88 145.6 320.88C145.76 320.88 145.907 321.133 146.04 321.64C146.28 322.307 146.68 322.733 147.24 322.92C147.773 323.133 148.347 323.24 148.96 323.24C150.107 323.24 151.213 322.867 152.28 322.12C153.347 321.4 154.333 320.44 155.24 319.24C156.173 318.067 157.013 316.8 157.76 315.44C158.533 314.08 159.2 312.773 159.76 311.52C160.32 310.24 160.773 309.16 161.12 308.28C160.773 308.227 160.427 308.2 160.08 308.2C159.733 308.173 159.387 308.147 159.04 308.12C158.853 308.12 158.68 308.12 158.52 308.12C158.36 308.093 158.187 308.08 158 308.08C157.147 308.08 156.293 308.173 155.44 308.36C154.613 308.52 153.867 308.84 153.2 309.32C152.56 309.773 152.08 310.453 151.76 311.36C151.627 311.68 151.56 311.96 151.56 312.2C151.56 312.413 151.627 312.653 151.76 312.92C151.84 313.027 151.88 313.133 151.88 313.24C151.88 313.453 151.747 313.56 151.48 313.56C151.293 313.56 151.147 313.467 151.04 313.28C150.907 312.987 150.8 312.627 150.72 312.2C150.64 311.747 150.613 311.28 150.64 310.8C150.747 309.573 151.067 308.64 151.6 308C152.16 307.333 152.853 306.88 153.68 306.64C154.533 306.4 155.44 306.28 156.4 306.28C157.28 306.28 158.16 306.333 159.04 306.44C159.92 306.547 160.8 306.667 161.68 306.8C162.133 305.6 162.547 304.413 162.92 303.24C163.293 302.04 163.64 300.933 163.96 299.92C163.213 300.613 162.36 301.133 161.4 301.48C160.467 301.827 159.587 302.053 158.76 302.16H158.72C158.48 302.16 158.36 302.067 158.36 301.88C158.36 301.64 158.52 301.507 158.84 301.48C159.613 301.4 160.4 301.107 161.2 300.6C162 300.067 162.747 299.4 163.44 298.6C164.16 297.773 164.72 296.88 165.12 295.92C165.173 295.787 165.36 295.68 165.68 295.6C166 295.493 166.32 295.44 166.64 295.44C166.933 295.44 167.187 295.48 167.4 295.56C167.613 295.64 167.693 295.76 167.64 295.92C167.133 297.2 166.507 298.84 165.76 300.84C165.013 302.813 164.173 304.907 163.24 307.12C164.867 307.44 166.493 307.787 168.12 308.16C169.747 308.533 171.32 308.813 172.84 309C173.373 307.853 173.92 306.707 174.48 305.56C175.04 304.413 175.547 303.24 176 302.04C176.133 301.773 176.213 301.547 176.24 301.36C176.267 301.173 176.28 301.027 176.28 300.92C176.28 300.787 176.267 300.693 176.24 300.64C176.24 300.56 176.227 300.493 176.2 300.44C176.227 300.12 176.387 299.693 176.68 299.16C176.973 298.627 177.36 298.093 177.84 297.56C178.32 297.027 178.84 296.587 179.4 296.24C179.96 295.867 180.493 295.68 181 295.68C181.16 295.68 181.44 295.747 181.84 295.88C182.24 295.987 182.613 296.173 182.96 296.44C183.307 296.68 183.467 297.013 183.44 297.44C183.36 297.413 183.267 297.373 183.16 297.32C183.08 297.267 183.013 297.24 182.96 297.24C182.373 297.24 181.747 297.56 181.08 298.2C180.413 298.84 179.747 299.667 179.08 300.68C178.413 301.693 177.773 302.76 177.16 303.88C176.573 304.973 176.053 306 175.6 306.96C175.147 307.893 174.8 308.627 174.56 309.16C175.013 309.16 175.547 309.12 176.16 309.04C176.773 308.96 177.36 308.827 177.92 308.64C178.48 308.427 178.893 308.12 179.16 307.72C179.24 307.613 179.32 307.56 179.4 307.56C179.507 307.56 179.587 307.627 179.64 307.76C179.693 307.867 179.667 308 179.56 308.16C179.24 308.667 178.76 309.053 178.12 309.32C177.48 309.56 176.813 309.72 176.12 309.8C175.427 309.853 174.8 309.88 174.24 309.88C173.973 310.52 173.693 311.267 173.4 312.12C173.107 312.973 172.853 313.827 172.64 314.68C172.453 315.533 172.36 316.293 172.36 316.96C172.36 317.467 172.44 317.893 172.6 318.24C172.787 318.56 173.093 318.72 173.52 318.72C174.08 318.72 174.733 318.493 175.48 318.04C176.227 317.56 176.96 316.973 177.68 316.28C178.427 315.587 179.107 314.907 179.72 314.24C180.36 313.547 180.84 312.987 181.16 312.56C181.213 312.507 181.293 312.48 181.4 312.48C181.48 312.48 181.547 312.52 181.6 312.6C181.68 312.653 181.693 312.76 181.64 312.92C181.587 313.027 181.333 313.387 180.88 314C180.427 314.613 179.8 315.347 179 316.2C178.253 317.053 177.36 317.813 176.32 318.48C175.307 319.147 174.213 319.48 173.04 319.48C172.133 319.48 171.507 319.2 171.16 318.64C170.813 318.08 170.64 317.413 170.64 316.64C170.64 315.787 170.773 314.893 171.04 313.96C171.307 313.027 171.533 312.307 171.72 311.8C171.853 311.453 171.987 311.12 172.12 310.8C172.28 310.453 172.427 310.107 172.56 309.76C170.88 309.627 169.227 309.427 167.6 309.16C165.973 308.893 164.333 308.667 162.68 308.48C162.227 309.467 161.667 310.653 161 312.04C160.36 313.4 159.613 314.8 158.76 316.24C157.907 317.653 156.96 318.973 155.92 320.2C154.907 321.453 153.8 322.453 152.6 323.2C151.427 323.973 150.187 324.36 148.88 324.36ZM198.16 319.4C197.707 319.4 197.28 319.293 196.88 319.08C196.507 318.867 196.227 318.467 196.04 317.88C195.96 317.64 195.92 317.307 195.92 316.88C195.92 316.293 196 315.64 196.16 314.92C196.32 314.2 196.493 313.587 196.68 313.08C196.547 313.133 196.293 313.373 195.92 313.8C195.573 314.2 195.133 314.693 194.6 315.28C194.093 315.84 193.52 316.413 192.88 317C192.267 317.56 191.627 318.027 190.96 318.4C190.293 318.773 189.64 318.96 189 318.96C188.573 318.96 188.12 318.84 187.64 318.6C187.16 318.333 186.773 318 186.48 317.6C186.08 317.067 185.88 316.52 185.88 315.96C185.88 315.24 186.12 314.493 186.6 313.72C187.107 312.947 187.747 312.2 188.52 311.48C189.32 310.733 190.16 310.067 191.04 309.48C191.947 308.867 192.8 308.36 193.6 307.96C194.427 307.533 195.093 307.253 195.6 307.12C196.133 306.96 196.733 306.88 197.4 306.88C197.773 306.88 198.16 306.933 198.56 307.04C198.96 307.12 199.293 307.267 199.56 307.48C199.773 307.587 199.947 307.733 200.08 307.92C200.213 308.107 200.28 308.307 200.28 308.52C200.28 308.733 200.187 308.8 200 308.72C199.787 308.4 199.493 308.2 199.12 308.12C198.773 308.013 198.413 307.96 198.04 307.96C196.973 307.96 195.8 308.307 194.52 309C193.24 309.693 192.093 310.507 191.08 311.44C190.76 311.707 190.32 312.173 189.76 312.84C189.227 313.48 188.733 314.187 188.28 314.96C187.827 315.733 187.6 316.44 187.6 317.08C187.6 317.427 187.693 317.733 187.88 318C187.987 318.187 188.16 318.28 188.4 318.28C188.773 318.28 189.267 318.08 189.88 317.68C190.52 317.28 191.173 316.8 191.84 316.24C192.507 315.653 193.107 315.093 193.64 314.56C194.2 314.027 194.6 313.64 194.84 313.4C194.973 313.267 195.227 313 195.6 312.6C196 312.173 196.427 311.72 196.88 311.24C197.333 310.76 197.733 310.347 198.08 310C198.453 309.653 198.693 309.48 198.8 309.48C198.933 309.48 199.147 309.52 199.44 309.6C199.76 309.653 200.027 309.747 200.24 309.88C200.453 310.013 200.493 310.187 200.36 310.4C199.667 311.413 199.107 312.48 198.68 313.6C198.28 314.693 198.04 315.56 197.96 316.2C197.933 316.307 197.92 316.413 197.92 316.52C197.92 316.6 197.92 316.693 197.92 316.8C197.92 317.867 198.293 318.4 199.04 318.4C199.44 318.4 199.973 318.16 200.64 317.68C201.307 317.2 201.987 316.627 202.68 315.96C203.373 315.293 204 314.653 204.56 314.04C205.147 313.4 205.547 312.92 205.76 312.6C205.84 312.52 205.92 312.48 206 312.48C206.107 312.48 206.2 312.533 206.28 312.64C206.36 312.72 206.36 312.827 206.28 312.96C205.987 313.44 205.56 314.013 205 314.68C204.44 315.347 203.813 316.013 203.12 316.68C202.427 317.347 201.747 317.92 201.08 318.4C200.733 318.667 200.293 318.893 199.76 319.08C199.227 319.293 198.693 319.4 198.16 319.4ZM209.845 319.52C209.658 319.52 209.605 319.427 209.685 319.24C209.765 319.08 209.912 318.72 210.125 318.16C210.338 317.573 210.578 316.88 210.845 316.08C211.138 315.28 211.432 314.453 211.725 313.6C212.018 312.747 212.285 311.947 212.525 311.2C212.792 310.453 213.005 309.867 213.165 309.44C213.218 309.28 213.272 309.053 213.325 308.76C213.378 308.44 213.485 308.16 213.645 307.92C213.832 307.653 214.138 307.52 214.565 307.52C215.365 307.52 215.765 307.707 215.765 308.08C215.765 308.213 215.698 308.44 215.565 308.76C215.245 309.48 214.898 310.307 214.525 311.24C214.152 312.173 213.818 313.053 213.525 313.88C213.232 314.707 213.005 315.347 212.845 315.8C213.112 315.427 213.538 314.893 214.125 314.2C214.738 313.507 215.418 312.76 216.165 311.96C216.912 311.16 217.685 310.387 218.485 309.64C219.312 308.893 220.072 308.293 220.765 307.84C221.485 307.36 222.098 307.12 222.605 307.12C223.245 307.12 223.565 307.467 223.565 308.16C223.565 308.4 223.498 308.76 223.365 309.24C223.125 309.907 222.818 310.56 222.445 311.2C222.072 311.813 221.738 312.467 221.445 313.16C220.938 314.413 220.645 315.427 220.565 316.2C220.538 316.307 220.525 316.413 220.525 316.52C220.525 316.6 220.525 316.693 220.525 316.8C220.525 317.867 220.885 318.4 221.605 318.4C222.005 318.4 222.538 318.16 223.205 317.68C223.872 317.2 224.552 316.627 225.245 315.96C225.965 315.293 226.605 314.653 227.165 314.04C227.725 313.4 228.112 312.92 228.325 312.6C228.405 312.52 228.485 312.48 228.565 312.48C228.672 312.48 228.752 312.52 228.805 312.6C228.885 312.68 228.898 312.787 228.845 312.92C228.605 313.373 228.192 313.947 227.605 314.64C227.045 315.307 226.418 315.987 225.725 316.68C225.032 317.347 224.352 317.92 223.685 318.4C223.285 318.667 222.792 318.907 222.205 319.12C221.618 319.333 221.032 319.427 220.445 319.4C219.698 319.32 219.165 319.067 218.845 318.64C218.525 318.187 218.365 317.653 218.365 317.04C218.365 316.32 218.498 315.56 218.765 314.76C219.058 313.933 219.378 313.16 219.725 312.44C220.072 311.72 220.352 311.173 220.565 310.8C220.778 310.373 220.885 310.04 220.885 309.8C220.885 309.587 220.792 309.48 220.605 309.48C220.418 309.48 220.138 309.6 219.765 309.84C219.392 310.08 218.885 310.493 218.245 311.08C217.658 311.587 217.032 312.253 216.365 313.08C215.698 313.88 215.045 314.707 214.405 315.56C213.792 316.413 213.245 317.147 212.765 317.76C212.312 318.373 211.992 318.733 211.805 318.84C211.672 318.92 211.365 319.053 210.885 319.24C210.432 319.427 210.085 319.52 209.845 319.52ZM244.817 323.36C244.124 323.253 243.63 322.92 243.337 322.36C243.044 321.8 242.897 321.107 242.897 320.28C242.897 319.293 243.03 318.227 243.297 317.08C243.59 315.933 243.924 314.853 244.297 313.84C244.67 312.827 244.964 312.053 245.177 311.52C244.564 312.24 243.857 313.027 243.057 313.88C242.284 314.733 241.47 315.547 240.617 316.32C239.764 317.093 238.937 317.733 238.137 318.24C237.364 318.72 236.684 318.96 236.097 318.96C235.67 318.96 235.217 318.84 234.737 318.6C234.257 318.333 233.87 318 233.577 317.6C233.177 317.067 232.977 316.52 232.977 315.96C232.977 315.24 233.217 314.493 233.697 313.72C234.204 312.947 234.844 312.2 235.617 311.48C236.417 310.733 237.257 310.067 238.137 309.48C239.044 308.867 239.897 308.36 240.697 307.96C241.524 307.533 242.19 307.253 242.697 307.12C242.964 307.067 243.244 307.013 243.537 306.96C243.83 306.907 244.137 306.88 244.457 306.88C244.857 306.88 245.257 306.933 245.657 307.04C246.057 307.12 246.39 307.267 246.657 307.48L246.817 307.6C247.457 306.133 248.164 304.653 248.937 303.16C249.71 301.64 250.537 300.253 251.417 299C252.297 297.747 253.23 296.747 254.217 296C255.204 295.227 256.23 294.84 257.297 294.84C257.43 294.84 257.564 294.853 257.697 294.88C257.83 294.88 257.95 294.893 258.057 294.92C258.724 295.053 259.19 295.293 259.457 295.64C259.75 295.96 259.897 296.347 259.897 296.8C259.897 297.12 259.83 297.467 259.697 297.84C259.59 298.187 259.43 298.533 259.217 298.88C258.63 299.92 257.857 300.947 256.897 301.96C255.964 302.973 254.937 303.96 253.817 304.92C252.697 305.853 251.577 306.76 250.457 307.64C249.364 308.52 248.364 309.347 247.457 310.12C247.057 311.053 246.657 312.147 246.257 313.4C245.857 314.653 245.524 315.72 245.257 316.6C245.097 317.24 244.964 317.84 244.857 318.4C244.777 318.96 244.737 319.48 244.737 319.96C244.737 320.84 244.897 321.56 245.217 322.12C245.484 322.547 245.817 322.76 246.217 322.76C246.51 322.76 246.777 322.653 247.017 322.44C247.124 322.387 247.217 322.32 247.297 322.24C247.404 322.16 247.524 322.08 247.657 322C247.817 321.92 247.95 321.88 248.057 321.88C248.244 321.88 248.257 322.027 248.097 322.32C248.017 322.4 247.924 322.493 247.817 322.6C247.71 322.733 247.59 322.867 247.457 323C247.27 323.133 246.99 323.24 246.617 323.32C246.244 323.4 245.87 323.44 245.497 323.44C245.39 323.44 245.27 323.427 245.137 323.4C245.03 323.4 244.924 323.387 244.817 323.36ZM248.657 307.84C249.724 307.12 250.884 306.227 252.137 305.16C253.39 304.067 254.564 302.907 255.657 301.68C256.75 300.427 257.59 299.24 258.177 298.12C258.524 297.48 258.697 296.973 258.697 296.6C258.697 296.147 258.497 295.92 258.097 295.92C257.724 295.92 257.23 296.133 256.617 296.56C254.83 297.947 253.324 299.6 252.097 301.52C250.87 303.413 249.724 305.52 248.657 307.84ZM234.977 318C235.11 318.16 235.284 318.24 235.497 318.24C235.897 318.24 236.364 318.067 236.897 317.72C237.457 317.373 237.83 317.107 238.017 316.92C239.377 315.827 240.737 314.653 242.097 313.4C243.484 312.12 244.777 310.84 245.977 309.56C246.084 309.32 246.177 309.093 246.257 308.88C246.337 308.64 246.43 308.413 246.537 308.2C246.137 308.04 245.67 307.96 245.137 307.96C244.07 307.96 242.897 308.307 241.617 309C240.337 309.693 239.19 310.507 238.177 311.44C237.857 311.707 237.417 312.173 236.857 312.84C236.324 313.48 235.83 314.187 235.377 314.96C234.924 315.733 234.697 316.44 234.697 317.08C234.697 317.427 234.79 317.733 234.977 318ZM262.298 320.84C260.911 320.84 259.631 320.6 258.458 320.12C257.311 319.667 256.391 318.96 255.698 318C255.031 317.013 254.698 315.76 254.698 314.24C254.698 313.387 254.818 312.467 255.058 311.48C255.431 309.907 256.044 308.333 256.898 306.76C257.778 305.187 258.818 303.707 260.018 302.32C261.244 300.933 262.578 299.707 264.018 298.64C265.458 297.547 266.938 296.693 268.458 296.08C270.004 295.44 271.538 295.12 273.058 295.12C273.511 295.12 273.978 295.16 274.458 295.24C275.524 295.427 276.311 295.827 276.818 296.44C277.351 297.027 277.618 297.707 277.618 298.48C277.618 299.387 277.324 300.293 276.738 301.2C276.151 302.107 275.378 302.973 274.418 303.8C273.484 304.6 272.458 305.32 271.338 305.96C270.244 306.6 269.164 307.12 268.098 307.52C267.031 307.92 266.084 308.147 265.258 308.2C264.751 308.227 264.498 308.08 264.498 307.76C264.498 307.6 264.578 307.44 264.738 307.28C264.924 307.093 265.178 306.987 265.498 306.96C267.578 306.773 269.511 306.147 271.298 305.08C273.111 303.987 274.498 302.507 275.458 300.64C275.671 300.24 275.831 299.84 275.938 299.44C276.071 299.013 276.138 298.613 276.138 298.24C276.138 297.653 275.964 297.16 275.618 296.76C275.298 296.333 274.724 296.12 273.898 296.12C272.991 296.12 271.924 296.4 270.698 296.96C269.471 297.493 268.178 298.253 266.818 299.24C265.484 300.227 264.164 301.4 262.858 302.76C261.578 304.093 260.418 305.56 259.378 307.16C258.364 308.733 257.578 310.4 257.018 312.16C256.671 313.227 256.498 314.213 256.498 315.12C256.498 316.747 257.058 317.947 258.178 318.72C259.298 319.467 260.751 319.84 262.538 319.84C264.084 319.84 265.778 319.573 267.618 319.04C269.484 318.507 271.298 317.693 273.058 316.6C274.818 315.48 276.298 314.067 277.498 312.36C277.578 312.253 277.671 312.2 277.778 312.2C277.884 312.2 277.978 312.253 278.058 312.36C278.164 312.467 278.178 312.573 278.098 312.68C276.711 314.6 275.111 316.16 273.298 317.36C271.511 318.56 269.658 319.44 267.738 320C265.818 320.56 264.004 320.84 262.298 320.84ZM288.505 319.48C288.052 319.48 287.652 319.373 287.305 319.16C286.958 318.973 286.718 318.6 286.585 318.04C286.505 317.747 286.465 317.453 286.465 317.16C286.465 316.36 286.665 315.587 287.065 314.84C287.492 314.067 287.985 313.36 288.545 312.72C289.105 312.053 289.585 311.493 289.985 311.04C290.198 310.827 290.438 310.547 290.705 310.2C290.998 309.853 291.145 309.507 291.145 309.16C291.145 308.947 291.038 308.747 290.825 308.56C290.612 308.347 290.225 308.2 289.665 308.12C289.345 308.067 289.038 308.027 288.745 308C288.478 307.947 288.198 307.92 287.905 307.92C287.158 308.933 286.425 309.96 285.705 311C285.012 312.013 284.265 313.013 283.465 314C283.278 314.187 283.118 314.28 282.985 314.28C282.825 314.28 282.745 314.2 282.745 314.04C282.745 313.88 282.825 313.72 282.985 313.56C284.425 311.8 285.665 309.92 286.705 307.92C286.572 307.92 286.372 307.92 286.105 307.92C285.838 307.893 285.625 307.867 285.465 307.84C285.278 307.787 285.132 307.707 285.025 307.6C284.918 307.493 284.865 307.387 284.865 307.28C284.865 307.12 284.932 307.027 285.065 307C285.412 306.893 285.785 306.733 286.185 306.52C286.585 306.307 286.958 306.027 287.305 305.68C287.678 305.307 288.025 304.92 288.345 304.52C288.665 304.093 288.918 303.773 289.105 303.56C289.292 303.427 289.492 303.36 289.705 303.36C289.838 303.36 289.958 303.4 290.065 303.48C290.198 303.56 290.265 303.68 290.265 303.84C290.265 304.027 290.185 304.267 290.025 304.56C289.785 304.933 289.518 305.347 289.225 305.8C288.958 306.253 288.705 306.667 288.465 307.04C288.945 307.067 289.425 307.093 289.905 307.12C290.385 307.147 290.878 307.16 291.385 307.16C291.652 307.16 291.905 307.16 292.145 307.16C292.412 307.133 292.678 307.12 292.945 307.12C293.745 307.12 294.145 307.32 294.145 307.72C294.145 307.987 293.998 308.32 293.705 308.72C293.438 309.093 293.105 309.507 292.705 309.96C291.798 311 291.025 312.093 290.385 313.24C289.745 314.387 289.318 315.267 289.105 315.88C288.892 316.52 288.785 317 288.785 317.32C288.785 317.96 289.038 318.28 289.545 318.28C289.998 318.28 290.545 318.053 291.185 317.6C291.852 317.147 292.532 316.6 293.225 315.96C293.918 315.293 294.545 314.653 295.105 314.04C295.665 313.4 296.065 312.92 296.305 312.6C296.358 312.52 296.438 312.48 296.545 312.48C296.652 312.48 296.745 312.533 296.825 312.64C296.905 312.72 296.905 312.827 296.825 312.96C296.532 313.413 296.105 313.987 295.545 314.68C294.985 315.347 294.358 316.013 293.665 316.68C292.972 317.347 292.292 317.92 291.625 318.4C291.278 318.667 290.798 318.907 290.185 319.12C289.598 319.36 289.038 319.48 288.505 319.48ZM313.363 319.4C312.91 319.4 312.483 319.293 312.083 319.08C311.71 318.867 311.43 318.467 311.243 317.88C311.163 317.64 311.123 317.307 311.123 316.88C311.123 316.293 311.203 315.64 311.363 314.92C311.523 314.2 311.696 313.587 311.883 313.08C311.75 313.133 311.496 313.373 311.123 313.8C310.776 314.2 310.336 314.693 309.803 315.28C309.296 315.84 308.723 316.413 308.083 317C307.47 317.56 306.83 318.027 306.163 318.4C305.496 318.773 304.843 318.96 304.203 318.96C303.776 318.96 303.323 318.84 302.843 318.6C302.363 318.333 301.976 318 301.683 317.6C301.283 317.067 301.083 316.52 301.083 315.96C301.083 315.24 301.323 314.493 301.803 313.72C302.31 312.947 302.95 312.2 303.723 311.48C304.523 310.733 305.363 310.067 306.243 309.48C307.15 308.867 308.003 308.36 308.803 307.96C309.63 307.533 310.296 307.253 310.803 307.12C311.336 306.96 311.936 306.88 312.603 306.88C312.976 306.88 313.363 306.933 313.763 307.04C314.163 307.12 314.496 307.267 314.763 307.48C314.976 307.587 315.15 307.733 315.283 307.92C315.416 308.107 315.483 308.307 315.483 308.52C315.483 308.733 315.39 308.8 315.203 308.72C314.99 308.4 314.696 308.2 314.323 308.12C313.976 308.013 313.616 307.96 313.243 307.96C312.176 307.96 311.003 308.307 309.723 309C308.443 309.693 307.296 310.507 306.283 311.44C305.963 311.707 305.523 312.173 304.963 312.84C304.43 313.48 303.936 314.187 303.483 314.96C303.03 315.733 302.803 316.44 302.803 317.08C302.803 317.427 302.896 317.733 303.083 318C303.19 318.187 303.363 318.28 303.603 318.28C303.976 318.28 304.47 318.08 305.083 317.68C305.723 317.28 306.376 316.8 307.043 316.24C307.71 315.653 308.31 315.093 308.843 314.56C309.403 314.027 309.803 313.64 310.043 313.4C310.176 313.267 310.43 313 310.803 312.6C311.203 312.173 311.63 311.72 312.083 311.24C312.536 310.76 312.936 310.347 313.283 310C313.656 309.653 313.896 309.48 314.003 309.48C314.136 309.48 314.35 309.52 314.643 309.6C314.963 309.653 315.23 309.747 315.443 309.88C315.656 310.013 315.696 310.187 315.563 310.4C314.87 311.413 314.31 312.48 313.883 313.6C313.483 314.693 313.243 315.56 313.163 316.2C313.136 316.307 313.123 316.413 313.123 316.52C313.123 316.6 313.123 316.693 313.123 316.8C313.123 317.867 313.496 318.4 314.243 318.4C314.643 318.4 315.176 318.16 315.843 317.68C316.51 317.2 317.19 316.627 317.883 315.96C318.576 315.293 319.203 314.653 319.763 314.04C320.35 313.4 320.75 312.92 320.963 312.6C321.043 312.52 321.123 312.48 321.203 312.48C321.31 312.48 321.403 312.533 321.483 312.64C321.563 312.72 321.563 312.827 321.483 312.96C321.19 313.44 320.763 314.013 320.203 314.68C319.643 315.347 319.016 316.013 318.323 316.68C317.63 317.347 316.95 317.92 316.283 318.4C315.936 318.667 315.496 318.893 314.963 319.08C314.43 319.293 313.896 319.4 313.363 319.4ZM322.288 332.6C322.048 332.6 321.928 332.52 321.928 332.36C321.928 332.227 321.955 332.107 322.008 332C322.115 331.813 322.355 331.267 322.728 330.36C323.101 329.48 323.568 328.347 324.128 326.96C324.661 325.6 325.248 324.12 325.888 322.52C326.528 320.947 327.155 319.387 327.768 317.84C328.381 316.267 328.941 314.84 329.448 313.56C328.968 313.64 328.541 313.693 328.168 313.72C327.795 313.747 327.528 313.76 327.368 313.76C327.128 313.76 326.888 313.68 326.648 313.52C326.408 313.36 326.288 313.147 326.288 312.88C326.288 312.64 326.448 312.44 326.768 312.28C327.088 312.093 327.435 311.96 327.808 311.88C328.208 311.773 328.501 311.72 328.688 311.72C328.981 311.72 329.195 311.827 329.328 312.04C329.488 312.253 329.661 312.36 329.848 312.36H329.928C330.221 311.613 330.461 311 330.648 310.52C330.861 310.013 330.995 309.653 331.048 309.44C331.261 308.88 331.555 308.16 331.928 307.28C332.301 306.4 332.715 305.467 333.168 304.48C333.621 303.467 334.088 302.493 334.568 301.56C335.075 300.6 335.541 299.773 335.968 299.08C336.368 298.467 336.835 297.853 337.368 297.24C337.928 296.6 338.528 296.08 339.168 295.68C339.835 295.253 340.541 295.04 341.288 295.04C341.608 295.04 341.915 295.08 342.208 295.16C342.501 295.213 342.781 295.307 343.048 295.44C343.848 295.893 344.248 296.547 344.248 297.4C344.248 297.747 344.181 298.133 344.048 298.56C343.941 298.96 343.781 299.387 343.568 299.84C343.221 300.613 342.648 301.533 341.848 302.6C341.075 303.667 340.168 304.773 339.128 305.92C338.115 307.067 337.061 308.173 335.968 309.24C334.875 310.307 333.821 311.24 332.808 312.04C333.501 311.987 334.208 311.933 334.928 311.88C335.648 311.8 336.368 311.76 337.088 311.76C337.275 311.76 337.461 311.787 337.648 311.84C337.861 311.867 337.968 311.92 337.968 312C337.968 312.053 337.901 312.12 337.768 312.2C337.661 312.253 337.435 312.333 337.088 312.44C336.875 312.493 336.448 312.587 335.808 312.72C335.168 312.827 334.421 312.933 333.568 313.04C332.741 313.147 331.915 313.253 331.088 313.36C330.715 314.32 330.275 315.467 329.768 316.8C329.288 318.107 328.795 319.427 328.288 320.76C327.808 322.12 327.368 323.333 326.968 324.4C326.648 325.333 326.448 326.013 326.368 326.44C326.288 326.867 326.248 327.187 326.248 327.4V327.68C326.248 327.787 326.235 327.893 326.208 328C326.208 328.107 326.168 328.253 326.088 328.44C325.608 329.667 325.288 330.493 325.128 330.92C324.968 331.373 324.741 331.693 324.448 331.88C324.235 331.987 323.901 332.133 323.448 332.32C322.995 332.507 322.608 332.6 322.288 332.6ZM331.648 312.12C332.635 311.373 333.648 310.467 334.688 309.4C335.728 308.333 336.741 307.2 337.728 306C338.715 304.773 339.608 303.573 340.408 302.4C341.235 301.227 341.915 300.187 342.448 299.28C342.901 298.533 343.128 297.827 343.128 297.16C343.128 296.44 342.875 296.08 342.368 296.08C341.941 296.08 341.435 296.32 340.848 296.8C340.341 297.173 339.728 297.8 339.008 298.68C338.315 299.533 337.621 300.493 336.928 301.56C336.261 302.6 335.675 303.587 335.168 304.52C334.581 305.64 334.048 306.72 333.568 307.76C333.088 308.773 332.701 309.627 332.408 310.32C332.115 310.987 331.941 311.387 331.888 311.52C331.808 311.68 331.728 311.88 331.648 312.12ZM346.494 319.4C346.014 319.4 345.574 319.293 345.174 319.08C344.801 318.867 344.521 318.467 344.334 317.88C344.308 317.8 344.281 317.72 344.254 317.64C344.254 317.56 344.254 317.467 344.254 317.36C344.254 316.827 344.374 316.16 344.614 315.36C344.854 314.56 345.148 313.787 345.494 313.04C345.334 313.253 345.148 313.52 344.934 313.84C344.721 314.133 344.414 314.52 344.014 315C343.908 315.107 343.788 315.16 343.654 315.16C343.468 315.16 343.374 315.053 343.374 314.84C343.374 314.68 343.428 314.547 343.534 314.44C344.228 313.56 344.841 312.773 345.374 312.08C345.934 311.387 346.348 310.8 346.614 310.32C346.614 310.267 346.694 310.107 346.854 309.84C347.014 309.547 347.228 309.147 347.494 308.64C347.281 308.667 347.094 308.693 346.934 308.72C346.801 308.72 346.681 308.72 346.574 308.72C346.388 308.72 346.228 308.64 346.094 308.48C345.961 308.32 345.948 308.12 346.054 307.88C346.188 307.507 346.481 307.293 346.934 307.24C347.388 307.187 347.788 307.147 348.134 307.12C348.161 307.067 348.214 307.04 348.294 307.04C348.614 306.453 348.921 305.88 349.214 305.32C349.508 304.76 349.748 304.293 349.934 303.92C350.148 303.547 350.254 303.347 350.254 303.32C350.788 302.467 351.134 301.907 351.294 301.64C351.454 301.347 351.668 301.173 351.934 301.12C352.228 301.093 352.534 301.107 352.854 301.16C353.201 301.213 353.428 301.333 353.534 301.52C353.614 301.627 353.654 301.76 353.654 301.92C353.654 302.16 353.601 302.4 353.494 302.64C353.388 302.853 353.281 303.027 353.174 303.16C353.068 303.347 352.921 303.48 352.734 303.56C352.574 303.613 352.428 303.773 352.294 304.04C352.028 304.547 351.734 305.093 351.414 305.68C351.094 306.267 350.761 306.827 350.414 307.36L350.894 307.32C351.534 307.267 352.134 307.2 352.694 307.12C353.281 307.04 353.948 307.013 354.694 307.04C354.828 307.04 354.961 307.067 355.094 307.12C355.254 307.147 355.334 307.2 355.334 307.28C355.334 307.387 354.988 307.533 354.294 307.72C354.028 307.827 353.441 307.947 352.534 308.08C351.654 308.187 350.748 308.293 349.814 308.4C349.548 308.907 349.308 309.333 349.094 309.68C348.881 310 348.734 310.24 348.654 310.4C348.068 311.627 347.534 312.747 347.054 313.76C346.601 314.747 346.348 315.56 346.294 316.2C346.268 316.307 346.254 316.413 346.254 316.52C346.254 316.6 346.254 316.693 346.254 316.8C346.254 317.867 346.601 318.4 347.294 318.4C347.721 318.4 348.268 318.173 348.934 317.72C349.601 317.24 350.281 316.667 350.974 316C351.668 315.307 352.294 314.653 352.854 314.04C353.441 313.4 353.841 312.92 354.054 312.6C354.134 312.52 354.214 312.48 354.294 312.48C354.401 312.48 354.481 312.52 354.534 312.6C354.614 312.68 354.628 312.787 354.574 312.92C354.334 313.373 353.921 313.947 353.334 314.64C352.774 315.307 352.134 315.987 351.414 316.68C350.721 317.347 350.041 317.92 349.374 318.4C349.028 318.667 348.588 318.893 348.054 319.08C347.548 319.293 347.028 319.4 346.494 319.4ZM375.548 321C375.254 321 374.961 320.96 374.668 320.88C374.374 320.8 374.161 320.64 374.028 320.4C373.921 320.187 373.934 319.92 374.068 319.6C374.201 319.307 374.388 319.04 374.628 318.8C374.841 318.587 375.108 318.373 375.428 318.16C375.774 317.947 376.134 317.773 376.508 317.64H376.588C376.721 317.64 376.788 317.693 376.788 317.8C376.788 317.88 376.734 317.96 376.628 318.04C376.148 318.28 375.774 318.573 375.508 318.92C375.321 319.133 375.228 319.36 375.228 319.6C375.228 320.027 375.481 320.24 375.988 320.24C376.548 320.24 377.148 320.067 377.788 319.72C378.454 319.4 379.081 318.973 379.668 318.44C380.281 317.88 380.774 317.293 381.148 316.68C381.521 316.067 381.708 315.48 381.708 314.92C381.708 314.547 381.508 314.213 381.108 313.92C380.708 313.6 380.268 313.32 379.788 313.08C379.308 312.813 378.948 312.6 378.708 312.44C378.414 312.227 378.148 312.013 377.908 311.8C377.668 311.56 377.481 311.307 377.348 311.04C377.134 311.413 376.854 311.867 376.508 312.4C376.188 312.907 375.801 313.44 375.348 314C375.188 314.16 375.028 314.24 374.868 314.24C374.708 314.24 374.628 314.173 374.628 314.04C374.628 313.96 374.694 313.827 374.828 313.64C375.548 312.787 376.081 312 376.428 311.28C376.774 310.56 377.014 310.013 377.148 309.64C377.254 308.867 377.614 308.133 378.228 307.44C378.841 306.747 379.588 306.147 380.468 305.64C381.348 305.107 382.241 304.693 383.148 304.4C384.081 304.107 384.908 303.96 385.628 303.96C386.348 303.96 386.988 304.093 387.548 304.36C388.108 304.627 388.388 305.053 388.388 305.64C388.388 305.96 388.294 306.307 388.108 306.68C387.868 307.187 387.468 307.64 386.908 308.04C386.881 308.067 386.841 308.08 386.788 308.08C386.574 308.08 386.468 307.987 386.468 307.8C386.468 307.667 386.534 307.533 386.668 307.4C386.881 307.213 387.054 306.987 387.188 306.72C387.321 306.453 387.388 306.2 387.388 305.96C387.388 305.48 387.108 305.24 386.548 305.24C386.148 305.24 385.681 305.32 385.148 305.48C384.614 305.613 384.094 305.787 383.588 306C383.108 306.187 382.708 306.36 382.388 306.52C381.721 306.84 381.108 307.24 380.548 307.72C379.988 308.173 379.454 308.747 378.948 309.44C378.601 309.893 378.428 310.32 378.428 310.72C378.428 311.2 378.748 311.64 379.388 312.04C380.054 312.413 380.708 312.773 381.348 313.12C382.014 313.467 382.574 313.84 383.028 314.24C383.481 314.64 383.708 315.12 383.708 315.68C383.708 316.293 383.321 317.027 382.548 317.88C382.068 318.413 381.414 318.92 380.588 319.4C379.788 319.88 378.934 320.267 378.028 320.56C377.121 320.853 376.294 321 375.548 321ZM393.664 319.52C393.45 319.52 393.397 319.427 393.504 319.24C393.557 319.08 393.69 318.68 393.904 318.04C394.144 317.4 394.424 316.627 394.744 315.72C395.064 314.813 395.397 313.893 395.744 312.96C396.09 312 396.41 311.147 396.704 310.4C396.517 310.64 396.224 310.987 395.824 311.44C395.45 311.893 395.05 312.373 394.624 312.88C394.197 313.387 393.797 313.827 393.424 314.2C393.344 314.28 393.29 314.32 393.264 314.32C393.184 314.32 393.144 314.24 393.144 314.08C393.144 313.76 393.224 313.467 393.384 313.2C393.97 312.453 394.53 311.76 395.064 311.12C395.624 310.453 396.13 309.827 396.584 309.24C396.317 309.08 396.184 308.88 396.184 308.64C396.184 308.267 396.37 308.08 396.744 308.08C396.904 308.08 397.024 308.107 397.104 308.16C397.13 308.187 397.157 308.2 397.184 308.2C397.21 308.2 397.237 308.227 397.264 308.28C397.397 308.093 397.504 307.92 397.584 307.76C397.69 307.6 397.784 307.427 397.864 307.24C397.97 307 398.184 306.547 398.504 305.88C398.85 305.187 399.277 304.373 399.784 303.44C400.29 302.507 400.864 301.547 401.504 300.56C402.17 299.547 402.877 298.613 403.624 297.76C404.397 296.88 405.184 296.173 405.984 295.64C406.81 295.107 407.65 294.84 408.504 294.84C408.61 294.84 408.717 294.853 408.824 294.88C408.93 294.88 409.037 294.893 409.144 294.92C409.81 295.053 410.277 295.293 410.544 295.64C410.81 295.96 410.944 296.347 410.944 296.8C410.944 297.12 410.877 297.467 410.744 297.84C410.637 298.187 410.477 298.533 410.264 298.88C409.73 299.813 409.024 300.76 408.144 301.72C407.264 302.653 406.277 303.587 405.184 304.52C404.117 305.427 403.037 306.32 401.944 307.2C400.877 308.053 399.877 308.867 398.944 309.64C398.304 311 397.81 312.213 397.464 313.28C397.117 314.32 396.85 315.16 396.664 315.8C396.957 315.427 397.397 314.893 397.984 314.2C398.57 313.507 399.237 312.76 399.984 311.96C400.73 311.16 401.504 310.4 402.304 309.68C403.104 308.933 403.864 308.333 404.584 307.88C405.304 307.4 405.917 307.16 406.424 307.16C407.064 307.16 407.384 307.493 407.384 308.16C407.384 308.8 407.157 309.507 406.704 310.28C406.25 311.053 405.877 311.707 405.584 312.24C405.21 313.013 404.904 313.76 404.664 314.48C404.45 315.173 404.317 315.747 404.264 316.2C404.237 316.307 404.224 316.413 404.224 316.52C404.224 316.6 404.224 316.693 404.224 316.8C404.224 317.867 404.597 318.4 405.344 318.4C405.744 318.4 406.277 318.16 406.944 317.68C407.61 317.2 408.29 316.627 408.984 315.96C409.677 315.293 410.304 314.653 410.864 314.04C411.45 313.4 411.85 312.92 412.064 312.6C412.144 312.52 412.237 312.48 412.344 312.48C412.45 312.48 412.53 312.52 412.584 312.6C412.637 312.68 412.637 312.787 412.584 312.92C412.317 313.373 411.904 313.947 411.344 314.64C410.784 315.307 410.157 315.987 409.464 316.68C408.77 317.347 408.09 317.92 407.424 318.4C407.077 318.667 406.624 318.893 406.064 319.08C405.53 319.293 404.997 319.4 404.464 319.4C404.037 319.4 403.624 319.293 403.224 319.08C402.824 318.867 402.53 318.467 402.344 317.88C402.264 317.64 402.224 317.307 402.224 316.88C402.224 316.747 402.224 316.613 402.224 316.48C402.224 316.32 402.237 316.16 402.264 316C402.37 315.147 402.65 314.253 403.104 313.32C403.584 312.36 404.024 311.507 404.424 310.76C404.53 310.547 404.61 310.36 404.664 310.2C404.744 310.04 404.784 309.907 404.784 309.8C404.784 309.587 404.69 309.48 404.504 309.48C404.317 309.48 404.024 309.6 403.624 309.84C403.224 310.08 402.69 310.493 402.024 311.08C401.437 311.587 400.81 312.253 400.144 313.08C399.504 313.88 398.864 314.707 398.224 315.56C397.61 316.413 397.064 317.147 396.584 317.76C396.13 318.373 395.81 318.733 395.624 318.84C395.49 318.92 395.184 319.053 394.704 319.24C394.224 319.427 393.877 319.52 393.664 319.52ZM399.704 307.84C400.77 307.12 401.93 306.227 403.184 305.16C404.437 304.067 405.61 302.907 406.704 301.68C407.824 300.427 408.677 299.24 409.264 298.12C409.584 297.507 409.744 297 409.744 296.6C409.744 296.147 409.544 295.92 409.144 295.92C408.957 295.92 408.744 295.973 408.504 296.08C408.264 296.16 407.984 296.32 407.664 296.56C405.877 297.947 404.37 299.6 403.144 301.52C401.917 303.413 400.77 305.52 399.704 307.84ZM421.067 319.44C420.32 319.44 419.667 319.267 419.107 318.92C418.174 318.36 417.707 317.347 417.707 315.88C417.707 315.267 417.814 314.56 418.027 313.76C418.214 313.093 418.547 312.373 419.027 311.6C419.507 310.8 420.067 310.04 420.707 309.32C421.374 308.6 422.094 308.013 422.867 307.56C423.64 307.107 424.414 306.88 425.187 306.88C425.507 306.88 425.787 306.92 426.027 307C426.347 307.107 426.614 307.307 426.827 307.6C427.067 307.867 427.187 308.213 427.187 308.64C427.187 309.093 427.067 309.347 426.827 309.4C426.614 309.453 426.507 309.4 426.507 309.24C426.507 309.187 426.507 309.133 426.507 309.08C426.534 309.027 426.547 308.987 426.547 308.96C426.547 308.747 426.48 308.56 426.347 308.4C426.24 308.213 426.027 308.12 425.707 308.12C425.28 308.12 424.747 308.347 424.107 308.8C423.494 309.253 422.854 309.867 422.187 310.64C421.547 311.387 420.974 312.213 420.467 313.12C419.987 314.027 419.667 314.933 419.507 315.84C419.48 315.973 419.454 316.107 419.427 316.24C419.427 316.347 419.427 316.467 419.427 316.6C419.427 317.213 419.56 317.733 419.827 318.16C420.12 318.56 420.574 318.76 421.187 318.76C421.934 318.76 422.654 318.48 423.347 317.92C424.04 317.333 424.654 316.64 425.187 315.84C425.747 315.04 426.16 314.333 426.427 313.72C426.64 313.24 426.787 312.827 426.867 312.48C426.947 312.133 426.987 311.84 426.987 311.6C426.987 311.387 426.96 311.2 426.907 311.04C426.88 310.88 426.84 310.747 426.787 310.64C426.734 310.48 426.707 310.36 426.707 310.28C426.707 310.067 426.787 309.893 426.947 309.76C427.134 309.627 427.32 309.56 427.507 309.56C427.667 309.56 427.84 309.613 428.027 309.72C428.24 309.773 428.534 309.813 428.907 309.84C429.28 309.867 429.68 309.88 430.107 309.88C430.56 309.88 431.014 309.867 431.467 309.84C431.947 309.813 432.36 309.76 432.707 309.68C432.76 309.653 432.84 309.64 432.947 309.64C433.134 309.64 433.227 309.693 433.227 309.8C433.227 309.907 433.134 310 432.947 310.08C432.014 310.507 431.174 310.733 430.427 310.76C429.707 310.787 429.08 310.8 428.547 310.8C428.6 311.467 428.454 312.187 428.107 312.96C427.76 313.707 427.4 314.373 427.027 314.96C426.574 315.627 426.054 316.307 425.467 317C424.88 317.693 424.227 318.28 423.507 318.76C422.787 319.213 421.974 319.44 421.067 319.44ZM431.65 332.68C431.33 332.68 431.17 332.547 431.17 332.28C431.17 332.173 431.21 332.027 431.29 331.84C431.61 331.147 432.064 330.107 432.65 328.72C433.237 327.36 433.89 325.787 434.61 324C435.304 322.24 436.01 320.427 436.73 318.56C437.37 316.907 437.984 315.293 438.57 313.72C439.184 312.147 439.69 310.733 440.09 309.48C440.49 308.2 440.69 307.213 440.69 306.52C440.69 306.307 440.837 306.187 441.13 306.16C441.424 306.107 441.704 306.08 441.97 306.08C442.85 306.08 443.29 306.373 443.29 306.96C443.29 307.44 443.024 308.067 442.49 308.84C442.01 309.613 441.597 310.413 441.25 311.24C440.904 312.04 440.557 312.867 440.21 313.72C440.85 312.867 441.45 312.027 442.01 311.2C442.57 310.373 443.224 309.667 443.97 309.08C444.557 308.627 445.13 308.267 445.69 308C446.277 307.707 446.904 307.56 447.57 307.56C448.264 307.56 448.957 307.733 449.65 308.08C450.344 308.4 450.744 308.92 450.85 309.64C450.877 309.72 450.89 309.813 450.89 309.92C450.89 310 450.89 310.08 450.89 310.16C450.89 311.093 450.61 312.013 450.05 312.92C449.517 313.8 448.877 314.587 448.13 315.28C447.384 315.973 446.69 316.533 446.05 316.96C445.517 317.28 444.864 317.627 444.09 318C443.344 318.373 442.544 318.693 441.69 318.96C440.864 319.227 440.064 319.36 439.29 319.36C438.81 319.36 438.41 319.307 438.09 319.2C437.744 320 437.344 321.027 436.89 322.28C436.437 323.56 436.01 324.813 435.61 326.04C435.424 326.573 435.357 327 435.41 327.32C435.464 327.667 435.397 328.093 435.21 328.6C435.05 329.133 434.877 329.64 434.69 330.12C434.504 330.627 434.29 331.107 434.05 331.56C433.997 331.667 433.837 331.813 433.57 332C433.277 332.187 432.957 332.347 432.61 332.48C432.237 332.613 431.917 332.68 431.65 332.68ZM438.41 318.56C439.264 318.56 440.157 318.36 441.09 317.96C442.024 317.56 442.944 317.027 443.85 316.36C444.757 315.693 445.57 314.973 446.29 314.2C447.037 313.4 447.637 312.627 448.09 311.88C448.624 311.027 448.89 310.24 448.89 309.52C448.89 308.693 448.53 308.28 447.81 308.28C447.624 308.28 447.397 308.32 447.13 308.4C446.864 308.453 446.557 308.573 446.21 308.76C444.797 309.507 443.637 310.387 442.73 311.4C441.824 312.387 441.05 313.48 440.41 314.68C439.77 315.88 439.104 317.173 438.41 318.56Z" fill="black"/>
<path d="M238.795 362.545H240.909V375.023C240.909 376.136 240.705 377.082 240.295 377.861C239.886 378.639 239.31 379.23 238.565 379.634C237.821 380.037 236.943 380.239 235.932 380.239C234.977 380.239 234.128 380.065 233.384 379.719C232.639 379.366 232.054 378.866 231.628 378.219C231.202 377.571 230.989 376.801 230.989 375.909H233.068C233.068 376.403 233.19 376.835 233.435 377.205C233.685 377.568 234.026 377.852 234.457 378.057C234.889 378.261 235.381 378.364 235.932 378.364C236.54 378.364 237.057 378.236 237.483 377.98C237.909 377.724 238.233 377.349 238.455 376.855C238.682 376.355 238.795 375.744 238.795 375.023V362.545ZM253.122 374.648V366.909H255.134V380H253.122V377.784H252.986C252.679 378.449 252.202 379.014 251.554 379.48C250.906 379.94 250.088 380.17 249.099 380.17C248.281 380.17 247.554 379.991 246.918 379.634C246.281 379.27 245.781 378.724 245.418 377.997C245.054 377.264 244.872 376.341 244.872 375.227V366.909H246.884V375.091C246.884 376.045 247.151 376.807 247.685 377.375C248.224 377.943 248.912 378.227 249.747 378.227C250.247 378.227 250.756 378.099 251.273 377.844C251.795 377.588 252.233 377.196 252.585 376.668C252.943 376.139 253.122 375.466 253.122 374.648ZM268.09 369.841L266.283 370.352C266.17 370.051 266.002 369.759 265.781 369.474C265.565 369.185 265.269 368.946 264.894 368.759C264.519 368.571 264.039 368.477 263.454 368.477C262.653 368.477 261.985 368.662 261.451 369.031C260.923 369.395 260.658 369.858 260.658 370.42C260.658 370.92 260.84 371.315 261.204 371.605C261.567 371.895 262.136 372.136 262.908 372.33L264.852 372.807C266.022 373.091 266.894 373.526 267.468 374.111C268.042 374.69 268.329 375.437 268.329 376.352C268.329 377.102 268.113 377.773 267.681 378.364C267.255 378.955 266.658 379.42 265.891 379.761C265.124 380.102 264.232 380.273 263.215 380.273C261.88 380.273 260.775 379.983 259.9 379.403C259.025 378.824 258.471 377.977 258.238 376.864L260.147 376.386C260.329 377.091 260.673 377.619 261.178 377.972C261.69 378.324 262.357 378.5 263.181 378.5C264.119 378.5 264.863 378.301 265.414 377.903C265.971 377.5 266.249 377.017 266.249 376.455C266.249 376 266.09 375.619 265.772 375.312C265.454 375 264.965 374.767 264.306 374.614L262.124 374.102C260.925 373.818 260.045 373.378 259.482 372.781C258.925 372.179 258.647 371.426 258.647 370.523C258.647 369.784 258.854 369.131 259.269 368.562C259.69 367.994 260.261 367.548 260.982 367.224C261.71 366.901 262.533 366.739 263.454 366.739C264.749 366.739 265.766 367.023 266.505 367.591C267.249 368.159 267.778 368.909 268.09 369.841ZM277.05 366.909V368.614H270.266V366.909H277.05ZM272.243 363.773H274.254V376.25C274.254 376.818 274.337 377.244 274.501 377.528C274.672 377.807 274.888 377.994 275.149 378.091C275.416 378.182 275.697 378.227 275.993 378.227C276.214 378.227 276.396 378.216 276.538 378.193C276.68 378.165 276.794 378.142 276.879 378.125L277.288 379.932C277.152 379.983 276.962 380.034 276.717 380.085C276.473 380.142 276.163 380.17 275.788 380.17C275.22 380.17 274.663 380.048 274.118 379.804C273.578 379.56 273.129 379.188 272.771 378.688C272.419 378.188 272.243 377.557 272.243 376.795V363.773ZM287.098 380V362.545H297.564V364.42H289.212V370.318H296.78V372.193H289.212V380H287.098ZM305.268 380.273C304.087 380.273 303.05 379.991 302.158 379.429C301.271 378.866 300.578 378.08 300.078 377.068C299.584 376.057 299.337 374.875 299.337 373.523C299.337 372.159 299.584 370.969 300.078 369.952C300.578 368.935 301.271 368.145 302.158 367.582C303.05 367.02 304.087 366.739 305.268 366.739C306.45 366.739 307.484 367.02 308.371 367.582C309.263 368.145 309.956 368.935 310.45 369.952C310.95 370.969 311.2 372.159 311.2 373.523C311.2 374.875 310.95 376.057 310.45 377.068C309.956 378.08 309.263 378.866 308.371 379.429C307.484 379.991 306.45 380.273 305.268 380.273ZM305.268 378.466C306.166 378.466 306.905 378.236 307.484 377.776C308.064 377.315 308.493 376.71 308.771 375.96C309.05 375.21 309.189 374.398 309.189 373.523C309.189 372.648 309.05 371.832 308.771 371.077C308.493 370.321 308.064 369.71 307.484 369.244C306.905 368.778 306.166 368.545 305.268 368.545C304.371 368.545 303.632 368.778 303.053 369.244C302.473 369.71 302.044 370.321 301.766 371.077C301.487 371.832 301.348 372.648 301.348 373.523C301.348 374.398 301.487 375.21 301.766 375.96C302.044 376.71 302.473 377.315 303.053 377.776C303.632 378.236 304.371 378.466 305.268 378.466ZM314.271 380V366.909H316.214V368.886H316.35C316.589 368.239 317.021 367.713 317.646 367.31C318.271 366.906 318.975 366.705 319.759 366.705C319.907 366.705 320.092 366.707 320.313 366.713C320.535 366.719 320.702 366.727 320.816 366.739V368.784C320.748 368.767 320.592 368.741 320.347 368.707C320.109 368.668 319.856 368.648 319.589 368.648C318.952 368.648 318.384 368.781 317.884 369.048C317.39 369.31 316.998 369.673 316.708 370.139C316.424 370.599 316.282 371.125 316.282 371.716V380H314.271ZM328.723 362.545H331.143L335.984 370.693H336.189L341.03 362.545H343.45L337.143 372.807V380H335.03V372.807L328.723 362.545ZM349.378 380.273C348.196 380.273 347.159 379.991 346.267 379.429C345.381 378.866 344.688 378.08 344.188 377.068C343.693 376.057 343.446 374.875 343.446 373.523C343.446 372.159 343.693 370.969 344.188 369.952C344.688 368.935 345.381 368.145 346.267 367.582C347.159 367.02 348.196 366.739 349.378 366.739C350.56 366.739 351.594 367.02 352.48 367.582C353.372 368.145 354.065 368.935 354.56 369.952C355.06 370.969 355.31 372.159 355.31 373.523C355.31 374.875 355.06 376.057 354.56 377.068C354.065 378.08 353.372 378.866 352.48 379.429C351.594 379.991 350.56 380.273 349.378 380.273ZM349.378 378.466C350.276 378.466 351.014 378.236 351.594 377.776C352.173 377.315 352.602 376.71 352.881 375.96C353.159 375.21 353.298 374.398 353.298 373.523C353.298 372.648 353.159 371.832 352.881 371.077C352.602 370.321 352.173 369.71 351.594 369.244C351.014 368.778 350.276 368.545 349.378 368.545C348.48 368.545 347.741 368.778 347.162 369.244C346.582 369.71 346.153 370.321 345.875 371.077C345.597 371.832 345.457 372.648 345.457 373.523C345.457 374.398 345.597 375.21 345.875 375.96C346.153 376.71 346.582 377.315 347.162 377.776C347.741 378.236 348.48 378.466 349.378 378.466ZM366.63 374.648V366.909H368.641V380H366.63V377.784H366.494C366.187 378.449 365.71 379.014 365.062 379.48C364.414 379.94 363.596 380.17 362.607 380.17C361.789 380.17 361.062 379.991 360.425 379.634C359.789 379.27 359.289 378.724 358.925 377.997C358.562 377.264 358.38 376.341 358.38 375.227V366.909H360.391V375.091C360.391 376.045 360.658 376.807 361.192 377.375C361.732 377.943 362.42 378.227 363.255 378.227C363.755 378.227 364.263 378.099 364.781 377.844C365.303 377.588 365.741 377.196 366.093 376.668C366.451 376.139 366.63 375.466 366.63 374.648Z" fill="black"/>
<path d="M252.207 451.344C252.128 450.599 251.793 450.02 251.202 449.605C250.616 449.19 249.855 448.983 248.918 448.983C248.259 448.983 247.693 449.082 247.222 449.281C246.75 449.48 246.389 449.75 246.139 450.091C245.889 450.432 245.761 450.821 245.756 451.259C245.756 451.622 245.838 451.937 246.003 452.205C246.173 452.472 246.403 452.699 246.693 452.886C246.983 453.068 247.304 453.222 247.656 453.347C248.009 453.472 248.364 453.577 248.722 453.662L250.358 454.071C251.017 454.224 251.651 454.432 252.259 454.693C252.872 454.955 253.42 455.284 253.903 455.682C254.392 456.08 254.778 456.56 255.062 457.122C255.347 457.685 255.489 458.344 255.489 459.099C255.489 460.122 255.227 461.023 254.705 461.801C254.182 462.574 253.426 463.179 252.438 463.616C251.455 464.048 250.264 464.264 248.866 464.264C247.509 464.264 246.33 464.054 245.33 463.634C244.335 463.213 243.557 462.599 242.994 461.793C242.438 460.986 242.136 460.003 242.091 458.844H245.202C245.247 459.452 245.435 459.957 245.764 460.361C246.094 460.764 246.523 461.065 247.051 461.264C247.585 461.463 248.182 461.562 248.841 461.562C249.528 461.562 250.131 461.46 250.648 461.256C251.17 461.045 251.58 460.756 251.875 460.386C252.17 460.011 252.321 459.574 252.327 459.074C252.321 458.619 252.188 458.244 251.926 457.949C251.665 457.648 251.298 457.398 250.827 457.199C250.361 456.994 249.815 456.812 249.19 456.653L247.205 456.142C245.767 455.773 244.631 455.213 243.795 454.463C242.966 453.707 242.551 452.705 242.551 451.455C242.551 450.426 242.83 449.526 243.386 448.753C243.949 447.98 244.713 447.381 245.679 446.955C246.645 446.523 247.739 446.307 248.96 446.307C250.199 446.307 251.284 446.523 252.216 446.955C253.153 447.381 253.889 447.974 254.423 448.736C254.957 449.491 255.233 450.361 255.25 451.344H252.207ZM261.256 456.33V464H258.171V446.545H261.188V453.134H261.342C261.648 452.395 262.123 451.812 262.765 451.386C263.413 450.955 264.237 450.739 265.237 450.739C266.146 450.739 266.938 450.929 267.614 451.31C268.29 451.69 268.813 452.247 269.183 452.98C269.558 453.713 269.745 454.608 269.745 455.665V464H266.66V456.142C266.66 455.261 266.433 454.577 265.978 454.088C265.529 453.594 264.898 453.347 264.086 453.347C263.54 453.347 263.052 453.466 262.62 453.705C262.194 453.937 261.859 454.276 261.614 454.719C261.376 455.162 261.256 455.699 261.256 456.33ZM278.6 464.256C277.322 464.256 276.214 463.974 275.276 463.412C274.339 462.849 273.612 462.062 273.094 461.051C272.583 460.04 272.327 458.858 272.327 457.506C272.327 456.153 272.583 454.969 273.094 453.952C273.612 452.935 274.339 452.145 275.276 451.582C276.214 451.02 277.322 450.739 278.6 450.739C279.879 450.739 280.987 451.02 281.924 451.582C282.862 452.145 283.586 452.935 284.097 453.952C284.614 454.969 284.873 456.153 284.873 457.506C284.873 458.858 284.614 460.04 284.097 461.051C283.586 462.062 282.862 462.849 281.924 463.412C280.987 463.974 279.879 464.256 278.6 464.256ZM278.617 461.784C279.31 461.784 279.89 461.594 280.356 461.213C280.822 460.827 281.168 460.31 281.396 459.662C281.629 459.014 281.745 458.293 281.745 457.497C281.745 456.696 281.629 455.972 281.396 455.324C281.168 454.67 280.822 454.151 280.356 453.764C279.89 453.378 279.31 453.185 278.617 453.185C277.907 453.185 277.316 453.378 276.844 453.764C276.379 454.151 276.029 454.67 275.796 455.324C275.569 455.972 275.455 456.696 275.455 457.497C275.455 458.293 275.569 459.014 275.796 459.662C276.029 460.31 276.379 460.827 276.844 461.213C277.316 461.594 277.907 461.784 278.617 461.784ZM287.491 468.909V450.909H290.526V453.074H290.705C290.864 452.756 291.088 452.418 291.378 452.06C291.668 451.696 292.06 451.386 292.554 451.131C293.048 450.869 293.679 450.739 294.446 450.739C295.457 450.739 296.369 450.997 297.182 451.514C298 452.026 298.648 452.784 299.125 453.79C299.608 454.79 299.849 456.017 299.849 457.472C299.849 458.909 299.614 460.131 299.142 461.136C298.67 462.142 298.028 462.909 297.216 463.438C296.403 463.966 295.483 464.23 294.455 464.23C293.705 464.23 293.082 464.105 292.588 463.855C292.094 463.605 291.696 463.304 291.395 462.952C291.099 462.594 290.869 462.256 290.705 461.938H290.577V468.909H287.491ZM290.517 457.455C290.517 458.301 290.636 459.043 290.875 459.679C291.119 460.315 291.469 460.812 291.923 461.17C292.384 461.523 292.94 461.699 293.594 461.699C294.276 461.699 294.847 461.517 295.307 461.153C295.767 460.784 296.114 460.281 296.347 459.645C296.585 459.003 296.705 458.273 296.705 457.455C296.705 456.642 296.588 455.92 296.355 455.29C296.122 454.659 295.776 454.165 295.315 453.807C294.855 453.449 294.281 453.27 293.594 453.27C292.935 453.27 292.375 453.443 291.915 453.79C291.455 454.136 291.105 454.622 290.866 455.247C290.634 455.872 290.517 456.608 290.517 457.455ZM322.925 446.545V464H320.112L311.888 452.111H311.743V464H308.581V446.545H311.411L319.626 458.443H319.78V446.545H322.925ZM331.944 464.256C330.665 464.256 329.558 463.974 328.62 463.412C327.683 462.849 326.955 462.062 326.438 461.051C325.927 460.04 325.671 458.858 325.671 457.506C325.671 456.153 325.927 454.969 326.438 453.952C326.955 452.935 327.683 452.145 328.62 451.582C329.558 451.02 330.665 450.739 331.944 450.739C333.222 450.739 334.33 451.02 335.268 451.582C336.205 452.145 336.93 452.935 337.441 453.952C337.958 454.969 338.217 456.153 338.217 457.506C338.217 458.858 337.958 460.04 337.441 461.051C336.93 462.062 336.205 462.849 335.268 463.412C334.33 463.974 333.222 464.256 331.944 464.256ZM331.961 461.784C332.654 461.784 333.234 461.594 333.7 461.213C334.165 460.827 334.512 460.31 334.739 459.662C334.972 459.014 335.089 458.293 335.089 457.497C335.089 456.696 334.972 455.972 334.739 455.324C334.512 454.67 334.165 454.151 333.7 453.764C333.234 453.378 332.654 453.185 331.961 453.185C331.251 453.185 330.66 453.378 330.188 453.764C329.722 454.151 329.373 454.67 329.14 455.324C328.913 455.972 328.799 456.696 328.799 457.497C328.799 458.293 328.913 459.014 329.14 459.662C329.373 460.31 329.722 460.827 330.188 461.213C330.66 461.594 331.251 461.784 331.961 461.784ZM343.162 464L339.463 450.909H342.608L344.909 460.114H345.028L347.381 450.909H350.491L352.844 460.062H352.972L355.239 450.909H358.392L354.685 464H351.472L349.017 455.153H348.838L346.384 464H343.162Z" fill="#F66B0E"/>
<path d="M241 468.773H358.972V470.409H241V468.773Z" fill="#F66B0E"/>
</svg>
