<svg width="30" height="30" viewBox="0 0 30 30" fill="none" xmlns="http://www.w3.org/2000/svg">
<path d="M8.03571 0C3.60351 0 0 4.23638 0 9.33852C0 11.1187 0.694755 12.6605 1.33929 13.7743C1.98382 14.8881 2.64509 15.6031 2.64509 15.6031L14.2299 29.1051L15 30L15.7701 29.1051L27.3549 15.6031C27.3549 15.6031 30 12.894 30 9.33852C30 4.23638 26.3965 0 21.9643 0C18.2854 0 15.9166 2.57296 15 3.65759C14.0834 2.57296 11.7146 0 8.03571 0ZM8.03571 2.49027C11.2374 2.49027 14.1964 6.10895 14.1964 6.10895L15 7.15953L15.8036 6.10895C15.8036 6.10895 18.7626 2.49027 21.9643 2.49027C25.2246 2.49027 27.8571 5.59825 27.8571 9.33852C27.8571 11.2597 25.8482 13.8521 25.8482 13.8521L15 26.4591L4.15179 13.8521C4.15179 13.8521 3.63281 13.2733 3.11384 12.3735C2.59487 11.4737 2.14286 10.3016 2.14286 9.33852C2.14286 5.59825 4.77539 2.49027 8.03571 2.49027Z" fill="#727272"/>
</svg>
