<svg width="30" height="45" viewBox="0 0 30 45" fill="none" xmlns="http://www.w3.org/2000/svg">
<path d="M15 0C6.73828 0 0 6.73828 0 15C0 17.3438 0.950522 20.0326 2.23958 22.9688C3.52865 25.9049 5.1888 29.0234 6.875 31.9271C10.2474 37.7409 13.6458 42.6042 13.6458 42.6042L15 44.5833L16.3542 42.6042C16.3542 42.6042 19.7526 37.7409 23.125 31.9271C24.8112 29.0234 26.4714 25.9049 27.7604 22.9688C29.0495 20.0326 30 17.3438 30 15C30 6.73828 23.2617 0 15 0ZM15 3.33333C21.4648 3.33333 26.6667 8.53516 26.6667 15C26.6667 16.3346 25.9505 18.8607 24.7396 21.6146C23.5286 24.3685 21.8555 27.4219 20.2083 30.2604C17.5911 34.7786 15.9635 37.168 15 38.5938C14.0365 37.168 12.4089 34.7786 9.79167 30.2604C8.14453 27.4219 6.47135 24.3685 5.26042 21.6146C4.04948 18.8607 3.33333 16.3346 3.33333 15C3.33333 8.53516 8.53516 3.33333 15 3.33333ZM15 11.6667C13.1576 11.6667 11.6667 13.1576 11.6667 15C11.6667 16.8424 13.1576 18.3333 15 18.3333C16.8424 18.3333 18.3333 16.8424 18.3333 15C18.3333 13.1576 16.8424 11.6667 15 11.6667Z" fill="black"/>
</svg>
