<svg width="153" height="46" viewBox="0 0 153 46" fill="none" xmlns="http://www.w3.org/2000/svg">
<path d="M11.24 30.32C12.2 30.16 13.12 29.8667 14 29.44C14.9067 29.0133 15.72 28.4667 16.44 27.8C16.4933 27.7733 16.6 27.68 16.76 27.52C16.92 27.36 17.0267 27.3067 17.08 27.36C17.1333 27.4133 17.12 27.4933 17.04 27.6C16.96 27.7067 16.8933 27.8 16.84 27.88C16.3067 28.6533 15.6 29.2933 14.72 29.8C13.8667 30.28 12.9733 30.6667 12.04 30.96C11.2667 31.1733 10.44 31.2533 9.56 31.2C8.68 31.12 7.85333 30.8933 7.08 30.52C6.84 30.4133 6.69333 30.3333 6.64 30.28C6.58667 30.2 6.58667 30.1467 6.64 30.12C6.69333 30.0933 6.77333 30.08 6.88 30.08C7.01333 30.08 7.13333 30.0933 7.24 30.12C7.53333 30.1733 7.86667 30.2267 8.24 30.28C8.64 30.3067 9.02667 30.3333 9.4 30.36C9.8 30.36 10.16 30.36 10.48 30.36C10.8 30.36 11.0533 30.3467 11.24 30.32ZM5.88 18.56C5.74667 19.4933 5.68 20.4133 5.68 21.32C5.68 22.2 5.73333 23.04 5.84 23.84C5.97333 24.6133 6.16 25.3067 6.4 25.92C6.66667 26.5333 6.98667 27.04 7.36 27.44C7.78667 27.8667 8.30667 28.2 8.92 28.44C9.56 28.6533 10.24 28.76 10.96 28.76C11.7067 28.76 12.48 28.6533 13.28 28.44C14.1067 28.2267 14.92 27.8933 15.72 27.44C15.88 27.3333 15.9867 27.3067 16.04 27.36C16.0933 27.4133 16.0667 27.48 15.96 27.56C15.88 27.6133 15.8 27.6667 15.72 27.72C15.0267 28.2533 14.2933 28.68 13.52 29C12.7467 29.32 11.96 29.52 11.16 29.6C10.3867 29.68 9.62667 29.64 8.88 29.48C8.16 29.2933 7.50667 28.96 6.92 28.48C6.36 28 5.90667 27.4267 5.56 26.76C5.21333 26.0667 4.94667 25.32 4.76 24.52C4.6 23.6933 4.50667 22.84 4.48 21.96C4.45333 21.08 4.48 20.2133 4.56 19.36C4.66667 18 4.93333 16.6267 5.36 15.24C5.78667 13.8533 6.34667 12.5733 7.04 11.4C7.76 10.2267 8.61333 9.2 9.6 8.32C10.5867 7.44 11.6933 6.82667 12.92 6.48C13.5333 6.32 14.16 6.25333 14.8 6.28C15.44 6.30667 16.0267 6.42667 16.56 6.64C17.12 6.85333 17.6 7.17333 18 7.6C18.4 8 18.6667 8.49333 18.8 9.08C18.9333 9.72 18.88 10.3467 18.64 10.96C18.4 11.5467 18.0667 12.0667 17.64 12.52C17.2133 12.9467 16.7333 13.2533 16.2 13.44C15.6667 13.6267 15.16 13.6267 14.68 13.44C14.6533 13.44 14.6267 13.4 14.6 13.32C14.6 13.24 14.6533 13.2133 14.76 13.24C15.08 13.2933 15.44 13.2267 15.84 13.04C16.2667 12.8267 16.64 12.5467 16.96 12.2C17.3067 11.8533 17.5733 11.44 17.76 10.96C17.9733 10.48 18.04 9.98667 17.96 9.48C17.88 9.10667 17.7067 8.78667 17.44 8.52C17.2 8.22667 16.88 8 16.48 7.84C16.08 7.65333 15.6267 7.53333 15.12 7.48C14.64 7.42667 14.1333 7.45333 13.6 7.56C12.5867 7.74667 11.64 8.2 10.76 8.92C9.90667 9.61333 9.14667 10.4667 8.48 11.48C7.81333 12.4933 7.25333 13.6267 6.8 14.88C6.34667 16.1067 6.04 17.3333 5.88 18.56ZM9.04 31.8C9.33333 31.8267 9.62667 31.84 9.92 31.84C10.24 31.84 10.4 31.88 10.4 31.96C10.4 31.9867 10.3467 32 10.24 32C10.1333 32.0267 10.0133 32.04 9.88 32.04C9.77333 32.04 9.65333 32.04 9.52 32.04C9.38667 32.04 9.30667 32.04 9.28 32.04C8.45333 32.04 7.64 31.92 6.84 31.68C6.04 31.44 5.29333 31.1067 4.6 30.68C3.93333 30.2267 3.33333 29.68 2.8 29.04C2.26667 28.4 1.86667 27.6667 1.6 26.84C1.06667 25.2133 0.76 23.6267 0.68 22.08C0.6 20.5333 0.666667 19.0133 0.88 17.52C0.986667 16.6667 1.18667 15.7067 1.48 14.64C1.8 13.5467 2.21333 12.44 2.72 11.32C3.25333 10.2 3.90667 9.09333 4.68 8C5.48 6.90667 6.42667 5.90667 7.52 5C8.66667 4.04 9.93333 3.4 11.32 3.08C12.7333 2.76 14.08 2.70667 15.36 2.92C16.64 3.13333 17.7733 3.58667 18.76 4.28C19.7467 4.94667 20.4 5.8 20.72 6.84C20.7467 6.89333 20.7733 7.01333 20.8 7.2C20.8267 7.36 20.8133 7.46667 20.76 7.52C20.7333 7.54667 20.6933 7.48 20.64 7.32C20.5867 7.16 20.5333 7.05333 20.48 7C19.36 5.48 18.0933 4.52 16.68 4.12C15.2667 3.69333 13.8667 3.65333 12.48 4C11.0933 4.32 9.78667 4.93333 8.56 5.84C7.33333 6.72 6.36 7.70666 5.64 8.8C4.38667 10.6933 3.42667 12.7067 2.76 14.84C2.12 16.9733 1.82667 19.1733 1.88 21.44C1.90667 22.48 2.01333 23.5733 2.2 24.72C2.41333 25.8667 2.81333 26.96 3.4 28C3.98667 29.0667 4.78667 29.96 5.8 30.68C6.84 31.3733 7.92 31.7467 9.04 31.8ZM3.28 16.76C3.49333 15.3467 3.82667 13.9733 4.28 12.64C4.76 11.3067 5.37333 10.0933 6.12 9C6.89333 7.88 7.84 6.92 8.96 6.12C10.08 5.32 11.4 4.76 12.92 4.44C13.4533 4.33333 14.0533 4.29333 14.72 4.32C15.3867 4.32 16.0533 4.44 16.72 4.68C17.3867 4.89333 18 5.22667 18.56 5.68C19.1467 6.13333 19.6267 6.76 20 7.56C20.3467 8.33333 20.4667 9.09333 20.36 9.84C20.2533 10.5867 20.0267 11.2667 19.68 11.88C19.3333 12.4667 18.9067 12.96 18.4 13.36C17.8933 13.76 17.4 13.9867 16.92 14.04C16.6267 14.0933 16.4667 14.0933 16.44 14.04C16.4133 13.96 16.56 13.8667 16.88 13.76C17.3867 13.6 17.8933 13.2 18.4 12.56C18.9333 11.8933 19.2533 11.0533 19.36 10.04C19.4133 9.53333 19.3467 9.04 19.16 8.56C18.9733 8.05333 18.7067 7.61333 18.36 7.24C18.0133 6.86667 17.6 6.54667 17.12 6.28C16.64 6.01333 16.1333 5.84 15.6 5.76C14.4533 5.6 13.4 5.68 12.44 6C11.48 6.32 10.64 6.73333 9.92 7.24C9.22667 7.72 8.65333 8.2 8.2 8.68C7.77333 9.16 7.50667 9.48 7.4 9.64C6.57333 10.68 5.85333 11.8133 5.24 13.04C4.62667 14.24 4.12 15.5067 3.72 16.84C3.72 16.8667 3.69333 16.96 3.64 17.12C3.61333 17.28 3.57333 17.4533 3.52 17.64C3.49333 17.8 3.45333 17.96 3.4 18.12C3.34667 18.2533 3.30667 18.32 3.28 18.32C3.22667 18.32 3.2 18.24 3.2 18.08C3.2 17.92 3.2 17.76 3.2 17.6C3.2 17.4133 3.21333 17.24 3.24 17.08C3.26667 16.92 3.28 16.8133 3.28 16.76ZM25.4094 18.68C25.196 19.5867 24.8894 20.5467 24.4894 21.56C24.116 22.5467 23.6894 23.4667 23.2094 24.32C23.2094 24.3733 23.1694 24.4667 23.0894 24.6C23.036 24.7067 22.956 24.76 22.8494 24.76C22.796 24.76 22.756 24.68 22.7294 24.52C22.7294 24.36 22.7427 24.2533 22.7694 24.2C22.7694 23.7733 22.8227 23.2133 22.9294 22.52C23.036 21.8 23.1694 21.2133 23.3294 20.76C23.3827 20.6 23.4627 20.2133 23.5694 19.6C23.7027 18.9867 23.8094 18.3067 23.8894 17.56C23.996 16.7867 24.0494 16.0533 24.0494 15.36C24.076 14.64 23.996 14.1067 23.8094 13.76V13.6C23.916 13.52 24.036 13.5467 24.1694 13.68C24.516 13.9733 24.7827 14.3333 24.9694 14.76C25.1827 15.1867 25.3294 15.64 25.4094 16.12C25.516 16.5733 25.556 17.0267 25.5294 17.48C25.5294 17.9333 25.4894 18.3333 25.4094 18.68ZM26.9694 18.52C27.2627 18.1467 27.5427 17.88 27.8094 17.72C28.076 17.56 28.3427 17.4267 28.6094 17.32C28.636 17.32 28.7027 17.3067 28.8094 17.28C28.916 17.2533 28.996 17.28 29.0494 17.36C29.1027 17.44 29.0894 17.5333 29.0094 17.64C28.9294 17.7467 28.8627 17.8267 28.8094 17.88C28.6227 18.0667 28.4094 18.28 28.1694 18.52C27.956 18.7333 27.756 18.9467 27.5694 19.16C27.3027 19.4533 27.0894 19.8 26.9294 20.2C26.7694 20.5733 26.6494 20.96 26.5694 21.36C27.0227 20.88 27.4494 20.4267 27.8494 20C28.276 19.5733 28.7294 19.1733 29.2094 18.8C29.8227 18.3467 30.356 17.76 30.8094 17.04C31.2627 16.32 31.5827 15.2667 31.7694 13.88C31.8227 13.7467 31.8894 13.6667 31.9694 13.64C32.0494 13.6133 32.0894 13.7067 32.0894 13.92C32.1694 15.4667 32.0094 16.6933 31.6094 17.6C31.2094 18.5067 30.6094 19.2667 29.8094 19.88C29.3827 20.2 28.956 20.5467 28.5294 20.92C28.1027 21.2933 27.6894 21.7067 27.2894 22.16C26.916 22.6133 26.5694 23.1467 26.2494 23.76C25.9294 24.3733 25.6494 25.08 25.4094 25.88C25.2227 26.4933 25.036 27.08 24.8494 27.64C24.6627 28.1733 24.4627 28.6933 24.2494 29.2C24.196 29.3867 24.116 29.48 24.0094 29.48C23.9294 29.4533 23.8894 29.32 23.8894 29.08C23.756 27.8 23.836 26.5333 24.1294 25.28C24.4494 24 24.8227 22.68 25.2494 21.32C25.436 20.6533 25.6494 19.9867 25.8894 19.32C26.156 18.6533 26.276 17.8933 26.2494 17.04C26.2494 16.7467 26.3694 16.44 26.6094 16.12C26.8494 15.8 27.1427 15.5067 27.4894 15.24C27.836 14.9467 28.196 14.7067 28.5694 14.52C28.9427 14.3067 29.2627 14.16 29.5294 14.08C29.7694 14 29.8894 14.0133 29.8894 14.12C29.8894 14.2267 29.8094 14.36 29.6494 14.52C29.0894 15.0267 28.516 15.6267 27.9294 16.32C27.3694 17.0133 27.0494 17.7467 26.9694 18.52ZM23.4894 31.96C23.4627 31.9867 23.436 32 23.4094 32C23.4094 31.9733 23.3427 31.92 23.2094 31.84C22.4094 31.2533 21.7827 30.6133 21.3294 29.92C20.876 29.2267 20.5427 28.52 20.3294 27.8C20.1427 27.0533 20.0627 26.32 20.0894 25.6C20.116 24.8533 20.2094 24.1333 20.3694 23.44C20.5827 22.5067 20.836 21.5867 21.1294 20.68C21.4494 19.7467 21.7427 18.8533 22.0094 18C22.276 17.12 22.476 16.2667 22.6094 15.44C22.7427 14.5867 22.7427 13.7733 22.6094 13C22.6094 12.9467 22.6494 12.9067 22.7294 12.88C22.756 12.88 22.7827 12.9067 22.8094 12.96C22.836 12.9867 22.8627 13.0133 22.8894 13.04C23.396 13.8933 23.6494 14.7733 23.6494 15.68C23.6494 16.56 23.5294 17.4667 23.2894 18.4C23.0494 19.3067 22.7427 20.24 22.3694 21.2C22.0227 22.1333 21.7427 23.08 21.5294 24.04C21.2627 25.2667 21.236 26.5733 21.4494 27.96C21.6894 29.3467 22.316 30.5867 23.3294 31.68C23.3827 31.76 23.436 31.8133 23.4894 31.84C23.5427 31.8667 23.5427 31.9067 23.4894 31.96ZM24.6894 32C24.636 32 24.5827 31.9867 24.5294 31.96L24.3694 31.88C23.996 31.64 23.6627 31.3867 23.3694 31.12C23.076 30.8267 22.8227 30.4133 22.6094 29.88C22.5294 29.6933 22.4627 29.4533 22.4094 29.16C22.356 28.84 22.316 28.5467 22.2894 28.28C22.2894 28.0133 22.3027 27.7867 22.3294 27.6C22.3827 27.4133 22.4627 27.3333 22.5694 27.36C22.6494 27.36 22.7294 27.4667 22.8094 27.68C22.916 27.8933 22.996 28.1067 23.0494 28.32C23.1027 28.6133 23.156 28.8933 23.2094 29.16C23.2894 29.4267 23.3827 29.6667 23.4894 29.88C23.7827 30.5467 24.1694 31.1867 24.6494 31.8C24.7027 31.9333 24.716 32 24.6894 32ZM31.2094 14.04C31.2094 14.6 31.0494 15.0933 30.7294 15.52C30.4094 15.9467 30.0227 16.3067 29.5694 16.6C29.4894 16.6533 29.436 16.6533 29.4094 16.6C29.3827 16.52 29.3694 16.4667 29.3694 16.44C29.3694 16.28 29.436 16.0933 29.5694 15.88C29.7027 15.64 29.8494 15.4 30.0094 15.16C30.196 14.8933 30.3694 14.6267 30.5294 14.36C30.6894 14.0933 30.796 13.8533 30.8494 13.64C30.9294 13.5067 31.0094 13.5067 31.0894 13.64C31.1694 13.7733 31.2094 13.9067 31.2094 14.04ZM47.3309 17.92C47.1176 18.9867 46.7576 20.0533 46.2509 21.12C45.7443 22.1867 45.2643 23.1867 44.8109 24.12C44.7843 24.1733 44.7176 24.2667 44.6109 24.4C44.5309 24.5333 44.4643 24.6 44.4109 24.6C44.3309 24.5733 44.2909 24.4933 44.2909 24.36C44.2909 24.2 44.2909 24.0933 44.2909 24.04C44.3176 23.8 44.3576 23.52 44.4109 23.2C44.4909 22.8533 44.5576 22.5067 44.6109 22.16C44.6643 21.7867 44.7176 21.44 44.7709 21.12C44.8509 20.7733 44.9309 20.4667 45.0109 20.2C45.2509 19.2933 45.4509 18.52 45.6109 17.88C45.7709 17.2133 45.8909 16.6133 45.9709 16.08C46.0509 15.5467 46.0909 15.04 46.0909 14.56C46.1176 14.08 46.0909 13.56 46.0109 13C45.9843 12.7867 45.9976 12.6533 46.0509 12.6C46.1043 12.5733 46.1709 12.6 46.2509 12.68C46.3309 12.76 46.3976 12.84 46.4509 12.92C46.9043 13.64 47.2109 14.44 47.3709 15.32C47.5309 16.1733 47.5176 17.04 47.3309 17.92ZM48.2909 15.24C48.6376 15.7467 48.8109 16.4133 48.8109 17.24C48.8109 18.0667 48.7309 18.92 48.5709 19.8C48.4109 20.6533 48.2109 21.48 47.9709 22.28C47.7309 23.08 47.5576 23.72 47.4509 24.2C47.2376 25.1333 46.9443 26.0667 46.5709 27C46.1976 27.9333 45.8776 28.76 45.6109 29.48C45.5843 29.56 45.5443 29.6533 45.4909 29.76C45.4376 29.84 45.3843 29.88 45.3309 29.88C45.2776 29.88 45.2509 29.8267 45.2509 29.72C45.2509 29.6133 45.2509 29.52 45.2509 29.44C45.1709 27.9733 45.3309 26.5467 45.7309 25.16C46.1309 23.7467 46.5576 22.32 47.0109 20.88C47.2776 20 47.5309 19.1067 47.7709 18.2C48.0109 17.2667 48.1176 16.2533 48.0909 15.16C48.0909 15.0533 48.1043 15 48.1309 15L48.2909 15.24ZM44.5309 14.56C42.9043 15.2267 41.5176 16.1867 40.3709 17.44C39.2509 18.6667 38.3843 20.0533 37.7709 21.6C37.5043 22.2933 37.3043 22.92 37.1709 23.48C37.0376 24.0133 36.9309 24.6 36.8509 25.24C36.8243 25.3733 36.8643 25.5067 36.9709 25.64C37.0776 25.7733 37.1843 25.7733 37.2909 25.64C37.7709 25.0533 38.3843 24.3067 39.1309 23.4C39.8776 22.4933 40.6243 21.5333 41.3709 20.52C42.1176 19.5067 42.7843 18.48 43.3709 17.44C43.9843 16.4 44.3709 15.44 44.5309 14.56ZM41.8509 28.12C41.4509 28.68 41.0643 29.2 40.6909 29.68C40.3176 30.16 39.9043 30.5867 39.4509 30.96C38.9976 31.3067 38.4909 31.5867 37.9309 31.8C37.3709 32.0133 36.7309 32.1333 36.0109 32.16C34.8109 32.2133 33.8909 31.9067 33.2509 31.24C32.6376 30.5733 32.2109 29.76 31.9709 28.8C31.7309 27.84 31.6376 26.8533 31.6909 25.84C31.7709 24.8 31.9176 23.9467 32.1309 23.28C32.4243 22.3467 32.7709 21.4667 33.1709 20.64C33.5976 19.7867 34.0376 19.0267 34.4909 18.36C34.9709 17.6667 35.4509 17.08 35.9309 16.6C36.4376 16.0933 36.9309 15.7067 37.4109 15.44C37.4376 15.44 37.4909 15.4133 37.5709 15.36C37.6776 15.3067 37.7309 15.32 37.7309 15.4C37.7576 15.4 37.7443 15.44 37.6909 15.52C37.6376 15.6 37.5843 15.6667 37.5309 15.72C36.1443 17.16 35.0376 18.7867 34.2109 20.6C33.4109 22.4133 32.9576 24.28 32.8509 26.2C32.8243 26.68 32.8376 27.2 32.8909 27.76C32.9709 28.32 33.1043 28.8533 33.2909 29.36C33.5043 29.84 33.7976 30.2533 34.1709 30.6C34.5443 30.92 35.0509 31.08 35.6909 31.08C36.1976 31.08 36.6643 31 37.0909 30.84C37.5176 30.6533 37.9176 30.4267 38.2909 30.16C38.6643 29.8667 38.9976 29.56 39.2909 29.24C39.6109 28.8933 39.8909 28.5733 40.1309 28.28C40.6643 27.6133 41.1576 26.92 41.6109 26.2C41.6109 25.6667 41.6376 25.1467 41.6909 24.64C41.7709 24.1333 41.8776 23.6267 42.0109 23.12C42.0909 22.7467 42.1576 22.4533 42.2109 22.24C42.2909 22 42.3576 21.7867 42.4109 21.6C42.4909 21.3867 42.5576 21.1733 42.6109 20.96C42.6909 20.72 42.7976 20.4133 42.9309 20.04C42.5043 20.7867 42.0776 21.4933 41.6509 22.16C41.2509 22.8 40.8109 23.4267 40.3309 24.04C39.8776 24.6267 39.3976 25.2133 38.8909 25.8C38.4109 26.36 37.8776 26.9333 37.2909 27.52C36.8376 27.9733 36.4643 28.12 36.1709 27.96C35.8776 27.8 35.7043 27.4267 35.6509 26.84C35.5976 25.9333 35.6376 25.0533 35.7709 24.2C35.9309 23.3467 36.1976 22.4533 36.5709 21.52C36.9176 20.6667 37.3443 19.84 37.8509 19.04C38.3843 18.24 38.9843 17.52 39.6509 16.88C40.3443 16.2133 41.1043 15.6533 41.9309 15.2C42.7576 14.72 43.6376 14.4 44.5709 14.24C44.6243 13.9467 44.6643 13.6933 44.6909 13.48C44.7443 13.2667 44.7843 13.0533 44.8109 12.84C44.8643 12.5467 44.8909 12.4 44.8909 12.4C44.9443 12.3733 44.9976 12.4 45.0509 12.48C45.1309 12.56 45.1976 12.6667 45.2509 12.8C45.5709 13.68 45.6776 14.56 45.5709 15.44C45.4643 16.32 45.2643 17.2133 44.9709 18.12C44.7043 19.0267 44.3843 19.96 44.0109 20.92C43.6376 21.8533 43.3309 22.8 43.0909 23.76C42.7709 25.12 42.6776 26.5333 42.8109 28C42.9709 29.44 43.5443 30.7467 44.5309 31.92C44.6109 32.0267 44.6509 32.08 44.6509 32.08C44.6243 32.1067 44.5443 32.08 44.4109 32C43.6376 31.52 43.0509 30.9467 42.6509 30.28C42.2776 29.5867 42.0109 28.8667 41.8509 28.12ZM43.2509 13.96C43.3043 14.0133 43.2909 14.0533 43.2109 14.08C43.1576 14.1067 43.0243 14.1467 42.8109 14.2C42.4643 14.3067 42.0376 14.5067 41.5309 14.8C41.0509 15.0933 40.5309 15.4667 39.9709 15.92C39.4376 16.3733 38.9043 16.9067 38.3709 17.52C37.8376 18.1067 37.3709 18.7467 36.9709 19.44C36.5709 20.16 36.2243 20.8667 35.9309 21.56C35.6643 22.2533 35.4376 22.8933 35.2509 23.48C35.0909 24.04 34.9709 24.5333 34.8909 24.96C34.8109 25.36 34.7709 25.64 34.7709 25.8C34.7709 26.2 34.7709 26.6267 34.7709 27.08C34.7709 27.5067 34.8243 27.8933 34.9309 28.24C35.0376 28.5867 35.2243 28.8533 35.4909 29.04C35.7576 29.2267 36.1576 29.28 36.6909 29.2C36.7176 29.2 36.7843 29.1867 36.8909 29.16C36.9976 29.1067 37.1043 29.0667 37.2109 29.04C37.3176 28.9867 37.4109 28.9467 37.4909 28.92C37.5976 28.8933 37.6643 28.88 37.6909 28.88C37.7176 28.9333 37.6909 29 37.6109 29.08C37.5576 29.16 37.4776 29.2533 37.3709 29.36C37.2643 29.44 37.1576 29.52 37.0509 29.6C36.9709 29.68 36.9176 29.7333 36.8909 29.76C36.2243 30.16 35.6643 30.28 35.2109 30.12C34.7576 29.96 34.3976 29.6667 34.1309 29.24C33.8909 28.7867 33.7176 28.2667 33.6109 27.68C33.5309 27.0667 33.5043 26.52 33.5309 26.04C33.5843 25.1067 33.7309 24.1867 33.9709 23.28C34.2109 22.3467 34.5176 21.4133 34.8909 20.48C35.1843 19.76 35.6243 19.0267 36.2109 18.28C36.7976 17.5067 37.4509 16.8 38.1709 16.16C38.9176 15.52 39.6909 15 40.4909 14.6C41.2909 14.1733 42.0643 13.9467 42.8109 13.92C43.0776 13.92 43.2243 13.9333 43.2509 13.96ZM45.6109 31.92C45.6643 32 45.6776 32.0533 45.6509 32.08C45.5709 32.08 45.4643 32.0533 45.3309 32C45.2509 31.9467 45.0376 31.7867 44.6909 31.52C44.3443 31.2533 44.0909 30.8267 43.9309 30.24C43.8776 30.0267 43.8243 29.76 43.7709 29.44C43.7443 29.0933 43.7309 28.7733 43.7309 28.48C43.7309 28.1867 43.7443 27.9333 43.7709 27.72C43.8243 27.5067 43.8909 27.4 43.9709 27.4C44.0509 27.4 44.1309 27.56 44.2109 27.88C44.3176 28.2 44.3843 28.4 44.4109 28.48C44.4909 28.8533 44.5576 29.1867 44.6109 29.48C44.6909 29.7467 44.7709 30 44.8509 30.24C44.9576 30.5333 45.0909 30.8667 45.2509 31.24C45.4376 31.6133 45.5576 31.84 45.6109 31.92ZM63.51 16.28C63.51 16.3067 63.4967 16.36 63.47 16.44C63.4433 16.4933 63.4167 16.5467 63.39 16.6C63.23 16.9733 63.0033 17.2933 62.71 17.56C62.4167 17.8267 62.11 18.0533 61.79 18.24C61.47 18.4267 61.15 18.56 60.83 18.64C60.51 18.72 60.23 18.7467 59.99 18.72C59.27 18.6667 58.5233 18.5467 57.75 18.36C56.9767 18.1467 56.2433 17.9067 55.55 17.64C55.5233 17.64 55.4433 17.6 55.31 17.52C55.2033 17.44 55.15 17.3733 55.15 17.32C55.15 17.2667 55.19 17.2267 55.27 17.2C55.35 17.1733 55.4167 17.1467 55.47 17.12C55.63 17.0667 55.8433 17.0267 56.11 17C56.3767 16.9733 56.6433 16.96 56.91 16.96C57.2033 16.96 57.4833 16.9733 57.75 17C58.0167 17 58.2433 17.0133 58.43 17.04C58.8567 17.12 59.31 17.1733 59.79 17.2C60.27 17.2 60.7367 17.1733 61.19 17.12C61.6433 17.0667 62.0567 16.9733 62.43 16.84C62.8033 16.7067 63.0967 16.52 63.31 16.28C63.4433 16.1467 63.51 16.1467 63.51 16.28ZM63.83 15.08L63.71 15.24C63.23 15.9067 62.6567 16.32 61.99 16.48C61.35 16.64 60.67 16.68 59.95 16.6C59.23 16.52 58.4833 16.3867 57.71 16.2C56.9633 16.0133 56.23 15.9067 55.51 15.88C54.5767 15.8267 53.63 16.04 52.67 16.52C51.71 16.9733 50.8833 17.8 50.19 19C50.1367 19.1333 50.0833 19.1867 50.03 19.16C50.0033 19.16 49.99 19.12 49.99 19.04C50.0167 18.9333 50.0433 18.8533 50.07 18.8C50.3367 18 50.67 17.3333 51.07 16.8C51.47 16.2667 51.8967 15.84 52.35 15.52C52.83 15.2 53.31 14.9733 53.79 14.84C54.2967 14.7067 54.79 14.64 55.27 14.64C56.6033 11.8133 58.1633 9.24 59.95 6.92C61.7633 4.6 63.7233 2.64 65.83 1.04C65.91 0.986665 65.9767 0.933332 66.03 0.879998C66.11 0.799999 66.1767 0.773332 66.23 0.799999C66.2833 0.799999 66.27 0.866665 66.19 0.999999C66.11 1.10667 66.0567 1.17333 66.03 1.2C64.3233 3.04 62.6567 5.10667 61.03 7.4C59.43 9.66667 57.99 12.1067 56.71 14.72C56.8167 14.7733 56.9233 14.8 57.03 14.8C57.1633 14.8 57.2833 14.8133 57.39 14.84C57.6833 14.1733 58.0033 13.4667 58.35 12.72C58.7233 11.9467 59.1367 11.1733 59.59 10.4C60.0433 9.57333 60.5367 8.78667 61.07 8.04C61.63 7.26667 62.1767 6.56 62.71 5.92C63.27 5.28 63.7767 4.70666 64.23 4.2C64.6833 3.69333 65.0433 3.29333 65.31 3C65.4167 2.89333 65.51 2.8 65.59 2.72C65.6967 2.64 65.7767 2.61333 65.83 2.64C65.8833 2.66667 65.8833 2.73333 65.83 2.84C65.7767 2.94667 65.7233 3.04 65.67 3.12C65.35 3.76 64.95 4.50667 64.47 5.36C64.0167 6.18667 63.5233 7.05333 62.99 7.96C62.4833 8.84 61.9767 9.73333 61.47 10.64C60.9633 11.52 60.51 12.32 60.11 13.04C59.9233 13.3867 59.7233 13.7333 59.51 14.08C59.3233 14.4 59.15 14.7467 58.99 15.12C59.1767 15.12 59.3767 15.16 59.59 15.24C60.1767 14.04 60.79 12.8667 61.43 11.72C62.0967 10.5467 62.8167 9.37333 63.59 8.2C63.6967 8.06667 63.75 7.98667 63.75 7.96C63.7767 7.90667 63.8167 7.90667 63.87 7.96C63.8967 7.98667 63.8833 8.10667 63.83 8.32C63.5367 9.09333 63.0967 10.12 62.51 11.4C61.95 12.68 61.3767 14.0133 60.79 15.4C61.3233 15.4533 61.83 15.4533 62.31 15.4C62.79 15.3467 63.2567 15.2133 63.71 15C63.7367 15 63.7633 15 63.79 15C63.8167 14.9733 63.83 15 63.83 15.08ZM53.19 17.44C53.19 17.5467 53.0967 17.68 52.91 17.84C52.75 17.9733 52.6433 18.0533 52.59 18.08L51.47 18.84C51.2567 19.0533 51.07 19.2533 50.91 19.44C50.75 19.6267 50.5767 19.8533 50.39 20.12C50.3367 20.1733 50.2967 20.2267 50.27 20.28C50.27 20.3333 50.2433 20.36 50.19 20.36C50.1633 20.36 50.15 20.2533 50.15 20.04C50.15 19.9333 50.1633 19.8267 50.19 19.72C50.3233 19.3467 50.4567 19.04 50.59 18.8C50.7233 18.5333 50.9633 18.2533 51.31 17.96C51.4433 17.8533 51.6167 17.7467 51.83 17.64C52.0433 17.5333 52.2433 17.4533 52.43 17.4C52.6433 17.32 52.8167 17.28 52.95 17.28C53.11 17.28 53.19 17.3333 53.19 17.44ZM54.55 20.04C54.1767 21.0533 53.87 22.0533 53.63 23.04C53.39 24.0267 53.1633 25.0267 52.95 26.04C52.6567 27.5333 52.4433 29.0667 52.31 30.64C52.2033 32.1867 52.1767 33.7067 52.23 35.2C52.31 36.72 52.47 38.1867 52.71 39.6C52.9767 41.0133 53.3367 42.32 53.79 43.52C53.8433 43.6533 53.8833 43.76 53.91 43.84C53.9633 43.9467 53.9633 44 53.91 44C53.83 44 53.75 43.9467 53.67 43.84C52.9233 42.6133 52.3367 41.2667 51.91 39.8C51.4833 38.36 51.2033 36.8267 51.07 35.2C50.9633 33.5733 50.9767 31.8933 51.11 30.16C51.27 28.4267 51.5367 26.68 51.91 24.92C52.2567 23.16 52.6967 21.44 53.23 19.76C53.0167 19.7067 52.83 19.6667 52.67 19.64C52.51 19.6133 52.35 19.5733 52.19 19.52C52.1367 19.4933 52.0567 19.4667 51.95 19.44C51.8433 19.3867 51.79 19.3333 51.79 19.28C51.79 19.2267 51.83 19.1867 51.91 19.16C51.99 19.1333 52.0567 19.1067 52.11 19.08C53.07 18.7333 54.0433 18.6 55.03 18.68C56.0167 18.76 57.0167 18.8933 58.03 19.08C58.6433 19.1867 59.27 19.2667 59.91 19.32C60.5767 19.3733 61.2567 19.2667 61.95 19C62.0567 18.9467 62.11 18.9467 62.11 19C62.11 19.0267 62.0567 19.12 61.95 19.28C61.6567 19.7333 61.2167 20.04 60.63 20.2C60.07 20.3333 59.4833 20.4133 58.87 20.44C58.4967 21.56 58.1767 22.6133 57.91 23.6C57.67 24.5867 57.4833 25.4267 57.35 26.12L54.95 37.28C54.8967 37.52 54.8567 37.72 54.83 37.88C54.8033 38.0667 54.7633 38.1333 54.71 38.08C54.63 38.1333 54.5767 38.04 54.55 37.8C54.55 37.5867 54.55 37.3733 54.55 37.16C54.55 34.5733 54.79 31.8533 55.27 29C55.7767 26.12 56.5233 23.2533 57.51 20.4C57.35 20.3467 57.2033 20.32 57.07 20.32C56.9633 20.32 56.8433 20.3067 56.71 20.28C56.31 21.32 55.9367 22.36 55.59 23.4C55.27 24.44 54.95 25.4667 54.63 26.48C54.63 26.5333 54.6033 26.6267 54.55 26.76C54.5233 26.8667 54.4833 26.9867 54.43 27.12C54.3767 27.2533 54.31 27.3733 54.23 27.48C54.1767 27.56 54.1367 27.6 54.11 27.6C54.0833 27.6 54.07 27.5467 54.07 27.44C54.0967 27.3333 54.11 27.2133 54.11 27.08C54.1367 26.92 54.15 26.7733 54.15 26.64C54.1767 26.48 54.19 26.3733 54.19 26.32C54.2433 25.5733 54.39 24.64 54.63 23.52C54.87 22.3733 55.1367 21.2533 55.43 20.16C55.11 20.16 54.8167 20.12 54.55 20.04ZM55.03 43.84C54.9767 43.8667 54.8833 43.8133 54.75 43.68C54.6967 43.6267 54.6567 43.5733 54.63 43.52C54.47 43.2533 54.3233 43 54.19 42.76C54.0833 42.5467 53.9767 42.2933 53.87 42C53.7633 41.7333 53.6567 41.4 53.55 41C53.47 40.6 53.39 40.0933 53.31 39.48C53.23 39.0267 53.1767 38.44 53.15 37.72C53.1233 37.0267 53.11 36.3467 53.11 35.68C53.11 35.0133 53.1367 34.44 53.19 33.96C53.2433 33.48 53.31 33.24 53.39 33.24C53.4433 33.24 53.4967 33.3333 53.55 33.52C53.6033 33.7333 53.6433 33.9733 53.67 34.24C53.6967 34.5067 53.71 34.76 53.71 35C53.7367 35.2667 53.75 35.4533 53.75 35.56L54.11 39.24C54.19 39.96 54.31 40.6533 54.47 41.32C54.63 41.9867 54.8033 42.6533 54.99 43.32C55.0167 43.4267 55.03 43.5333 55.03 43.64C55.0567 43.7733 55.0567 43.84 55.03 43.84ZM73.2881 14.24C73.3148 14.2667 73.3281 14.3333 73.3281 14.44C73.3281 14.52 73.3148 14.5867 73.2881 14.64C73.0481 15.4133 72.6348 15.96 72.0481 16.28C71.4615 16.6 70.9415 16.76 70.4881 16.76C69.9281 16.76 69.3548 16.72 68.7681 16.64C68.1815 16.5333 67.6215 16.28 67.0881 15.88C67.0348 15.8267 66.9681 15.7733 66.8881 15.72C66.8081 15.6667 66.7681 15.6133 66.7681 15.56C66.7681 15.48 66.8081 15.4267 66.8881 15.4C66.9681 15.3467 67.0348 15.3067 67.0881 15.28C67.3281 15.2267 67.6348 15.1867 68.0081 15.16C68.4081 15.1067 68.7948 15.1067 69.1681 15.16C69.4348 15.2133 69.7548 15.24 70.1281 15.24C70.5015 15.24 70.8748 15.2133 71.2481 15.16C71.6481 15.1067 72.0081 15.0267 72.3281 14.92C72.6481 14.7867 72.8881 14.6 73.0481 14.36C73.1281 14.2533 73.2081 14.2133 73.2881 14.24ZM73.5681 13L73.4481 13.2C72.9948 13.7867 72.5148 14.1733 72.0081 14.36C71.5015 14.52 70.9681 14.5867 70.4081 14.56C69.8481 14.5333 69.2748 14.4667 68.6881 14.36C68.1281 14.2267 67.5681 14.1467 67.0081 14.12C66.2615 14.0933 65.5148 14.32 64.7681 14.8C64.0215 15.28 63.3815 16.12 62.8481 17.32C62.7681 17.48 62.7148 17.52 62.6881 17.44C62.6615 17.3333 62.6615 17.24 62.6881 17.16C62.9015 16.36 63.1548 15.6933 63.4481 15.16C63.7415 14.6267 64.0481 14.2 64.3681 13.88C64.7148 13.5333 65.0748 13.28 65.4481 13.12C65.8215 12.96 66.2081 12.8533 66.6081 12.8C67.0615 11.28 67.4081 9.8 67.6481 8.36C67.9148 6.89333 67.9415 5.50667 67.7281 4.2C67.7281 4.09333 67.7281 4.04 67.7281 4.04C67.7815 4.01333 67.8348 4.02667 67.8881 4.08C67.9415 4.13333 67.9681 4.17333 67.9681 4.2C68.5548 5.48 68.7948 6.85333 68.6881 8.32C68.5815 9.76 68.3148 11.28 67.8881 12.88C68.0215 12.9067 68.1281 12.92 68.2081 12.92C68.2881 12.92 68.3815 12.92 68.4881 12.92C68.6215 12.2267 68.7415 11.4933 68.8481 10.72C68.9815 9.92 69.0748 9.16 69.1281 8.44C69.2081 7.72 69.2348 7.06667 69.2081 6.48C69.1815 5.89333 69.0881 5.45333 68.9281 5.16C68.8481 4.92 68.8481 4.8 68.9281 4.8C68.9815 4.8 69.0215 4.82667 69.0481 4.88C69.0748 4.93333 69.1148 4.98666 69.1681 5.04C69.5415 5.41333 69.8348 5.92 70.0481 6.56C70.2615 7.2 70.4081 7.88 70.4881 8.6C70.5681 9.32 70.5948 10.04 70.5681 10.76C70.5415 11.4533 70.4615 12.0667 70.3281 12.6L70.1681 13.24C70.2481 13.2933 70.3281 13.32 70.4081 13.32C70.4881 13.32 70.5681 13.3333 70.6481 13.36C70.8081 12.56 70.9415 11.76 71.0481 10.96C71.1815 10.16 71.2348 9.32 71.2081 8.44C71.2081 8.25333 71.2215 8.16 71.2481 8.16C71.3015 8.16 71.3415 8.2 71.3681 8.28C71.3948 8.36 71.4215 8.42667 71.4481 8.48C71.7681 9.06667 71.9148 9.8 71.8881 10.68C71.8881 11.56 71.8215 12.4933 71.6881 13.48C72.2748 13.48 72.8348 13.32 73.3681 13C73.5015 12.92 73.5681 12.92 73.5681 13ZM65.2881 15.72C65.2881 15.8533 65.2081 15.9867 65.0481 16.12C64.9148 16.2533 64.8081 16.3467 64.7281 16.4C64.5948 16.5067 64.4348 16.64 64.2481 16.8C64.0881 16.9333 63.9415 17.08 63.8081 17.24C63.6748 17.4533 63.5415 17.64 63.4081 17.8C63.3015 17.96 63.2081 18.1867 63.1281 18.48C63.1015 18.5333 63.0615 18.5867 63.0081 18.64C62.9815 18.6667 62.9548 18.6667 62.9281 18.64C62.8481 18.56 62.8481 18.3867 62.9281 18.12C63.0348 17.72 63.1415 17.4 63.2481 17.16C63.3548 16.8933 63.5548 16.6133 63.8481 16.32C63.9548 16.2133 64.0881 16.1067 64.2481 16C64.4081 15.8933 64.5681 15.8 64.7281 15.72C64.8881 15.64 65.0215 15.6 65.1281 15.6C65.2348 15.6 65.2881 15.64 65.2881 15.72ZM68.4081 31.8C68.5415 31.7467 68.5948 31.76 68.5681 31.84C68.5415 31.92 68.5015 31.9733 68.4481 32C67.9681 32.16 67.4615 32.1333 66.9281 31.92C66.3948 31.7067 65.9015 31.3733 65.4481 30.92C64.9948 30.4667 64.6081 29.9467 64.2881 29.36C63.9681 28.7467 63.7681 28.1467 63.6881 27.56C63.5548 26.3067 63.5415 25.0933 63.6481 23.92C63.7548 22.7467 63.9548 21.5867 64.2481 20.44L64.9281 17.92C64.7681 17.92 64.6081 17.88 64.4481 17.8C64.2615 17.7467 64.1681 17.68 64.1681 17.6C64.1681 17.5467 64.2615 17.4667 64.4481 17.36C65.1948 16.9867 65.9415 16.8267 66.6881 16.88C67.4615 16.9333 68.2348 17.0267 69.0081 17.16C69.4881 17.24 69.9681 17.3067 70.4481 17.36C70.9548 17.3867 71.5015 17.28 72.0881 17.04C72.1415 16.9867 72.1948 16.9733 72.2481 17C72.3015 17.0533 72.2881 17.1467 72.2081 17.28C72.0481 17.6267 71.8215 17.88 71.5281 18.04C71.2348 18.2 70.9281 18.32 70.6081 18.4C70.3948 19.0933 70.2081 19.72 70.0481 20.28C69.8881 20.8133 69.7548 21.2667 69.6481 21.64C69.3548 22.92 69.0081 24.2267 68.6081 25.56C68.2348 26.8667 67.9815 27.9733 67.8481 28.88C67.7948 29.1733 67.7415 29.3333 67.6881 29.36C67.6348 29.3867 67.5815 29.3333 67.5281 29.2C67.4748 29.0667 67.4348 28.96 67.4081 28.88C67.3015 28.1067 67.2748 27.3067 67.3281 26.48C67.4081 25.6267 67.5415 24.76 67.7281 23.88C67.9148 23 68.1281 22.12 68.3681 21.24C68.6081 20.3333 68.8615 19.4267 69.1281 18.52C68.9948 18.52 68.8615 18.52 68.7281 18.52C68.5948 18.52 68.4615 18.5067 68.3281 18.48C68.1148 19.04 67.8881 19.6 67.6481 20.16C67.4348 20.6933 67.2215 21.2 67.0081 21.68C66.9815 21.7333 66.9148 21.8667 66.8081 22.08C66.7281 22.2667 66.6615 22.36 66.6081 22.36C66.5015 22.3333 66.4615 22.2133 66.4881 22C66.5148 21.76 66.5281 21.6 66.5281 21.52C66.5815 21.12 66.6615 20.6533 66.7681 20.12C66.9015 19.5867 67.0215 19.0133 67.1281 18.4C66.9948 18.3733 66.8481 18.36 66.6881 18.36C66.5281 18.3333 66.3681 18.2933 66.2081 18.24C66.0481 18.7733 65.8881 19.2933 65.7281 19.8C65.5948 20.3067 65.4615 20.8133 65.3281 21.32C65.1148 22.2533 64.9548 23.2533 64.8481 24.32C64.7415 25.36 64.7415 26.44 64.8481 27.56C64.9015 28.0667 65.0348 28.5867 65.2481 29.12C65.4881 29.6533 65.7681 30.1333 66.0881 30.56C66.4081 30.9867 66.7681 31.32 67.1681 31.56C67.5948 31.8 68.0081 31.88 68.4081 31.8ZM68.7681 30.92C68.9015 30.8133 68.9815 30.8133 69.0081 30.92C69.0348 31 68.9815 31.08 68.8481 31.16C68.7415 31.24 68.5948 31.3067 68.4081 31.36C68.2481 31.3867 68.0615 31.3867 67.8481 31.36C67.6348 31.3333 67.4081 31.2533 67.1681 31.12C66.9281 30.9867 66.7015 30.7733 66.4881 30.48C66.3015 30.24 66.1415 29.8933 66.0081 29.44C65.9015 28.9867 65.8215 28.5467 65.7681 28.12C65.7148 27.6667 65.7015 27.28 65.7281 26.96C65.7548 26.64 65.8215 26.48 65.9281 26.48C66.0615 26.48 66.1548 26.6667 66.2081 27.04C66.2881 27.4133 66.3548 27.72 66.4081 27.96C66.5148 28.3867 66.6615 28.8267 66.8481 29.28C67.0348 29.7333 67.2348 30.0933 67.4481 30.36C67.7148 30.7067 67.9548 30.92 68.1681 31C68.3815 31.0533 68.5815 31.0267 68.7681 30.92ZM79.7672 10.92C79.3139 12.4933 78.7939 14.1067 78.2072 15.76C77.6472 17.4133 77.0605 18.9733 76.4472 20.44C76.4205 20.52 76.3405 20.6667 76.2072 20.88C76.1005 21.0933 76.0072 21.1867 75.9272 21.16C75.8739 21.16 75.8339 21.04 75.8072 20.8C75.8072 20.5333 75.8205 20.3333 75.8472 20.2C75.9005 19.8533 75.9805 19.4267 76.0872 18.92C76.1939 18.4133 76.3005 17.8933 76.4072 17.36C76.5405 16.8267 76.6605 16.3067 76.7672 15.8C76.9005 15.2933 77.0339 14.8533 77.1672 14.48C77.2205 14.32 77.3139 13.9733 77.4472 13.44C77.5805 12.9067 77.7272 12.2667 77.8872 11.52C78.0472 10.7733 78.2072 9.97333 78.3672 9.12C78.5539 8.26667 78.7005 7.44 78.8072 6.64C78.9405 5.84 79.0339 5.10667 79.0872 4.44C79.1405 3.77333 79.1272 3.26666 79.0472 2.92C78.9672 2.65333 78.9672 2.52 79.0472 2.52C79.1005 2.52 79.1405 2.56 79.1672 2.64C79.2205 2.69333 79.2739 2.74667 79.3272 2.8C79.5939 3.28 79.7939 3.86667 79.9272 4.56C80.0872 5.25333 80.1805 5.97333 80.2072 6.72C80.2339 7.46667 80.2072 8.21333 80.1272 8.96C80.0472 9.70667 79.9272 10.36 79.7672 10.92ZM78.1672 1.68C78.5139 3.04 78.5939 4.46667 78.4072 5.96C78.2472 7.45333 77.9539 8.97333 77.5272 10.52C77.1005 12.0667 76.6205 13.64 76.0872 15.24C75.5539 16.8133 75.1005 18.4 74.7272 20C74.4872 21.0133 74.2872 22.0667 74.1272 23.16C73.9939 24.2267 73.9272 25.2933 73.9272 26.36C73.9272 27.4 74.0072 28.4133 74.1672 29.4C74.3539 30.36 74.6605 31.2267 75.0872 32C75.1405 32.1067 75.1539 32.1867 75.1272 32.24C75.1272 32.2933 75.0472 32.2133 74.8872 32C74.1939 31.2 73.6739 30.2933 73.3272 29.28C73.0072 28.2667 72.8205 27.2 72.7672 26.08C72.7139 24.96 72.7672 23.8 72.9272 22.6C73.0872 21.4 73.3139 20.2267 73.6072 19.08C74.0072 17.48 74.4472 15.9067 74.9272 14.36C75.4339 12.8133 75.9005 11.3067 76.3272 9.84C76.7805 8.37333 77.1539 6.96 77.4472 5.6C77.7405 4.21333 77.8872 2.88 77.8872 1.6C77.8872 1.46666 77.9005 1.4 77.9272 1.4C78.0339 1.4 78.1139 1.49333 78.1672 1.68ZM85.4472 32C84.4605 31.5467 83.6739 30.84 83.0872 29.88C82.5005 28.92 82.1405 27.8133 82.0072 26.56C81.8739 25.3333 81.8739 24.32 82.0072 23.52C82.1405 22.6933 82.3005 21.88 82.4872 21.08C82.5139 20.9733 82.5672 20.8 82.6472 20.56C82.7272 20.2933 82.7805 20.0267 82.8072 19.76C82.8605 19.4933 82.8605 19.2667 82.8072 19.08C82.7805 18.8667 82.6739 18.7333 82.4872 18.68C82.1139 18.6 81.6872 18.7733 81.2072 19.2C80.7272 19.6 80.2605 20.1067 79.8072 20.72C79.3805 21.3333 78.9805 21.9733 78.6072 22.64C78.2605 23.28 78.0339 23.7867 77.9272 24.16C77.6872 24.9333 77.4339 25.6667 77.1672 26.36C76.9005 27.0533 76.6605 27.7467 76.4472 28.44C76.3672 28.7333 76.3005 28.8667 76.2472 28.84C76.1939 28.84 76.1539 28.7867 76.1272 28.68C76.1272 28.5733 76.1272 28.4533 76.1272 28.32C76.1272 27.2533 76.2072 26.1867 76.3672 25.12C76.5272 24.0267 76.7405 22.9467 77.0072 21.88C77.3005 20.8133 77.6205 19.7467 77.9672 18.68C78.3139 17.6133 78.6472 16.5333 78.9672 15.44C79.3939 14.08 79.7939 12.6933 80.1672 11.28C80.5672 9.86667 80.8339 8.34667 80.9672 6.72C80.9672 6.58667 80.9672 6.52 80.9672 6.52C80.9672 6.49333 80.9805 6.48 81.0072 6.48C81.0872 6.48 81.1539 6.58667 81.2072 6.8C81.3405 7.14666 81.3939 7.64 81.3672 8.28C81.3672 8.89333 81.3139 9.57333 81.2072 10.32C81.1272 11.0667 80.9939 11.8267 80.8072 12.6C80.6472 13.3733 80.4739 14.0667 80.2872 14.68C80.7939 14.1467 81.3939 13.7333 82.0872 13.44C82.7805 13.1467 83.6072 13.0667 84.5672 13.2C85.6605 13.36 86.5005 13.76 87.0872 14.4C87.6739 15.0133 88.0739 15.76 88.2872 16.64C88.5005 17.52 88.5539 18.4667 88.4472 19.48C88.3672 20.4667 88.2072 21.4267 87.9672 22.36C87.7539 23.08 87.5539 23.72 87.3672 24.28C87.1805 24.8133 86.9939 25.3067 86.8072 25.76C86.6205 26.2133 86.4605 26.64 86.3272 27.04C86.1939 27.44 86.0872 27.8667 86.0072 28.32C85.9539 28.6133 85.9005 28.76 85.8472 28.76C85.7939 28.76 85.7405 28.7067 85.6872 28.6C85.6605 28.4933 85.6339 28.3867 85.6072 28.28C85.4472 27.6933 85.4339 26.9733 85.5672 26.12C85.7272 25.2667 85.9272 24.3733 86.1672 23.44C86.4072 22.48 86.6205 21.52 86.8072 20.56C87.0205 19.5733 87.1005 18.6667 87.0472 17.84C87.0205 17.0133 86.8072 16.2933 86.4072 15.68C86.0072 15.04 85.3272 14.6 84.3672 14.36C83.9672 14.2533 83.5272 14.2267 83.0472 14.28C82.5939 14.3067 82.1539 14.4133 81.7272 14.6C81.3272 14.76 80.9672 15 80.6472 15.32C80.3272 15.64 80.1139 16.0133 80.0072 16.44C80.5139 15.9067 81.1672 15.4667 81.9672 15.12C82.7672 14.7733 83.5405 14.72 84.2872 14.96C84.9805 15.1733 85.4739 15.56 85.7672 16.12C86.0605 16.68 86.2339 17.1733 86.2872 17.6C86.3939 18.5333 86.3272 19.3867 86.0872 20.16C85.8739 20.9067 85.6205 21.6267 85.3272 22.32C85.2739 22.4 85.1939 22.5333 85.0872 22.72C84.9805 22.88 84.9005 22.9467 84.8472 22.92C84.7939 22.92 84.7672 22.8133 84.7672 22.6C84.7672 22.3867 84.7805 22.2267 84.8072 22.12C84.8872 21.8533 84.9539 21.44 85.0072 20.88C85.0605 20.2933 85.0739 19.6933 85.0472 19.08C85.0472 18.4667 84.9672 17.8933 84.8072 17.36C84.6739 16.8267 84.4472 16.4667 84.1272 16.28C83.7539 16.0667 83.3005 16.0133 82.7672 16.12C82.2339 16.2 81.6605 16.52 81.0472 17.08C80.5139 17.56 80.0605 18.12 79.6872 18.76C79.3139 19.3733 78.9939 20.1867 78.7272 21.2C78.8872 20.9067 79.1405 20.4933 79.4872 19.96C79.8339 19.4267 80.2205 18.92 80.6472 18.44C81.1005 17.96 81.5672 17.5867 82.0472 17.32C82.5539 17.0267 83.0339 16.9867 83.4872 17.2C83.7805 17.36 83.9672 17.64 84.0472 18.04C84.1539 18.4133 84.1805 18.84 84.1272 19.32C84.1005 19.8 84.0339 20.2667 83.9272 20.72C83.8205 21.1733 83.7272 21.5333 83.6472 21.8C83.3539 22.6 83.1539 23.48 83.0472 24.44C82.9405 25.3733 82.9405 26.2933 83.0472 27.2C83.1805 28.1067 83.4472 28.96 83.8472 29.76C84.2472 30.56 84.8339 31.24 85.6072 31.8C85.8472 31.9333 85.8872 32 85.7272 32C85.5939 32 85.5005 32 85.4472 32ZM86.4872 31.68C86.1139 31.4667 85.7539 31.24 85.4072 31C85.0872 30.76 84.7672 30.2933 84.4472 29.6C84.3139 29.3333 84.2072 28.9733 84.1272 28.52C84.0739 28.0667 84.0339 27.64 84.0072 27.24C84.0072 26.8133 84.0339 26.4667 84.0872 26.2C84.1405 25.9067 84.2072 25.7733 84.2872 25.8C84.3405 25.8 84.3939 25.8667 84.4472 26C84.5005 26.1067 84.5405 26.24 84.5672 26.4C84.5939 26.56 84.6205 26.72 84.6472 26.88C84.6739 27.0133 84.6872 27.1067 84.6872 27.16C84.7939 27.7467 84.8872 28.1867 84.9672 28.48C85.0472 28.7467 85.1539 29.04 85.2872 29.36C85.5005 29.7867 85.7139 30.1733 85.9272 30.52C86.1405 30.8667 86.4072 31.1867 86.7272 31.48C86.8605 31.5867 86.8872 31.6667 86.8072 31.72C86.7539 31.7733 86.6472 31.76 86.4872 31.68ZM76.3672 32C76.3939 32 76.3672 32.0133 76.2872 32.04C76.2339 32.0667 76.1139 32.0533 75.9272 32C75.7139 31.8933 75.4872 31.6933 75.2472 31.4C75.0339 31.1067 74.8605 30.5333 74.7272 29.68C74.6739 29.3333 74.6472 28.92 74.6472 28.44C74.6472 27.9333 74.6605 27.4667 74.6872 27.04C74.7405 26.5867 74.8072 26.2 74.8872 25.88C74.9672 25.56 75.0605 25.4133 75.1672 25.44C75.1939 25.44 75.2205 25.52 75.2472 25.68C75.2739 25.84 75.3005 26.0267 75.3272 26.24C75.3539 26.4267 75.3672 26.6267 75.3672 26.84C75.3672 27.0267 75.3672 27.16 75.3672 27.24C75.3939 27.8267 75.4205 28.2667 75.4472 28.56C75.5005 28.8267 75.5672 29.2 75.6472 29.68C75.7272 30.1867 75.8205 30.6533 75.9272 31.08C76.0339 31.48 76.1805 31.7867 76.3672 32Z" fill="#727272"/>
<path d="M91.1892 12.5C90.3311 12.5 89.6216 13.1969 89.6216 14.0398C89.6216 14.8827 90.3311 15.5531 91.1892 15.5531C91.2872 15.5531 91.3919 15.5431 91.4865 15.5265L92.7027 16.7212C91.3277 18.3407 90.4865 20.4281 90.4865 22.6947C90.4865 24.9613 91.3277 27.0487 92.7027 28.6681L89 32.2788L90.2432 33.5L93.9189 29.8628C95.5676 31.2135 97.6926 32.0398 100 32.0398C102.307 32.0398 104.432 31.2135 106.081 29.8628L109.757 33.5L111 32.2788L107.297 28.6681C108.061 27.7688 108.645 26.7268 109.027 25.5885H109.108C109.101 25.5354 109.088 25.4823 109.081 25.4292C109.351 24.5664 109.514 23.6438 109.514 22.6947C109.514 20.4281 108.672 18.3407 107.297 16.7212L108.514 15.5265C108.615 15.5465 108.703 15.5531 108.811 15.5531C109.669 15.5531 110.378 14.8827 110.378 14.0398C110.378 13.1969 109.669 12.5 108.811 12.5C107.953 12.5 107.27 13.1969 107.27 14.0398C107.27 14.146 107.277 14.2323 107.297 14.3319L106.081 15.5265C104.432 14.1759 102.307 13.3496 100 13.3496C97.7061 13.3496 95.5912 14.1659 93.9459 15.5L92.7027 14.3053C92.7162 14.2223 92.7297 14.1294 92.7297 14.0398C92.7297 13.1969 92.0473 12.5 91.1892 12.5ZM101.73 15.2611C101.845 15.2876 101.966 15.3108 102.081 15.3407C99.2736 17.0166 97.4054 19.6515 97.4054 22.6947C97.4054 25.7345 99.2838 28.3695 102.081 30.0487C101.966 30.0785 101.845 30.1018 101.73 30.1283C98.2264 29.2124 95.6757 26.2456 95.6757 22.6947C95.6757 19.1438 98.2331 16.1803 101.73 15.2611ZM97.5946 15.4204C96.8885 15.9679 96.2804 16.5985 95.7568 17.3053L95.1622 16.7212C95.8851 16.1571 96.6959 15.7058 97.5946 15.4204ZM104.081 16.1903C105.997 17.3518 107.365 19.2931 107.703 21.5796C107.422 21.1283 107.091 20.6903 106.73 20.2788C105.486 18.8584 103.922 17.8595 102.216 17.3053C102.784 16.8872 103.395 16.5088 104.081 16.1903ZM93.9459 17.9159L94.8378 18.8186C94.2736 19.9967 93.9459 21.3142 93.9459 22.6947C93.9459 24.0785 94.2736 25.3927 94.8378 26.5708L93.9189 27.4469C92.8615 26.1427 92.2162 24.5 92.2162 22.6947C92.2162 20.8761 92.875 19.2268 93.9459 17.9159ZM100.703 18.6593C102.493 19.021 104.139 19.9237 105.405 21.3673C106.412 22.5188 107.057 23.8628 107.324 25.2699C107.233 25.5188 107.115 25.7478 107 25.9867C106.584 25.1338 106.064 24.3142 105.405 23.5708C103.855 21.8219 101.838 20.7268 99.6757 20.2257C99.9324 19.6715 100.287 19.1504 100.703 18.6593ZM99.2162 21.8451C99.9223 22.0044 100.598 22.25 101.243 22.5619C100.976 22.9137 100.676 23.2456 100.324 23.5442C100.024 23.7998 99.6892 24.0122 99.3514 24.208C99.2095 23.7135 99.1351 23.2157 99.1351 22.6947C99.1351 22.4093 99.1757 22.1239 99.2162 21.8451ZM102.73 23.4381C103.166 23.7633 103.561 24.1383 103.946 24.5531C103.551 25.167 103.061 25.7345 102.486 26.2257C102.061 26.5874 101.588 26.8695 101.108 27.1283C100.696 26.7102 100.345 26.2721 100.054 25.8009C100.554 25.5221 101.02 25.1936 101.459 24.8186C101.949 24.4004 102.365 23.9358 102.73 23.4381ZM105.054 25.9867C105.392 26.5376 105.662 27.1217 105.865 27.7124C105.361 28.2832 104.764 28.771 104.108 29.1726C103.551 28.9137 103.024 28.6184 102.541 28.2965C102.919 28.0575 103.277 27.7954 103.622 27.5C104.162 27.0387 104.642 26.5376 105.054 25.9867ZM95.7568 28.0841C96.2804 28.7909 96.8885 29.4215 97.5946 29.969C96.6959 29.6836 95.8851 29.2323 95.1622 28.6681L95.7568 28.0841Z" fill="#F66B0E"/>
<path d="M118.72 11.68C118.347 13.12 117.88 14.6133 117.32 16.16C116.787 17.7067 116.227 19.1733 115.64 20.56C115.613 20.6133 115.547 20.7467 115.44 20.96C115.333 21.1467 115.253 21.2267 115.2 21.2C115.12 21.2 115.08 21.0933 115.08 20.88C115.107 20.64 115.133 20.48 115.16 20.4C115.187 20.08 115.24 19.68 115.32 19.2C115.427 18.72 115.52 18.2267 115.6 17.72C115.707 17.2133 115.813 16.72 115.92 16.24C116.053 15.76 116.173 15.3467 116.28 15C116.36 14.76 116.507 14.16 116.72 13.2C116.933 12.24 117.133 11.1733 117.32 10C117.533 8.82667 117.693 7.69333 117.8 6.6C117.907 5.50666 117.907 4.70666 117.8 4.2C117.747 3.96 117.747 3.84 117.8 3.84C117.853 3.84 117.893 3.88 117.92 3.96C117.973 4.01333 118.027 4.06666 118.08 4.12C118.373 4.57333 118.6 5.12 118.76 5.76C118.92 6.4 119.013 7.08 119.04 7.8C119.093 8.49333 119.08 9.18666 119 9.88C118.947 10.5733 118.853 11.1733 118.72 11.68ZM116.92 3.12C117.293 4.4 117.413 5.73333 117.28 7.12C117.147 8.48 116.88 9.88 116.48 11.32C116.107 12.76 115.68 14.2267 115.2 15.72C114.72 17.2133 114.307 18.6933 113.96 20.16C113.64 21.5467 113.413 22.92 113.28 24.28C113.173 25.64 113.267 27.0267 113.56 28.44C113.64 28.3067 113.72 28.2133 113.8 28.16C113.907 28.1067 114.013 28.04 114.12 27.96C114.12 27.64 114.12 27.32 114.12 27C114.12 26.6533 114.133 26.3467 114.16 26.08C114.187 25.8133 114.227 25.6 114.28 25.44C114.333 25.28 114.413 25.2 114.52 25.2C114.547 25.2 114.573 25.2667 114.6 25.4C114.653 25.5333 114.693 25.6933 114.72 25.88C114.747 26.04 114.773 26.2133 114.8 26.4C114.827 26.56 114.84 26.6667 114.84 26.72C114.867 26.9333 114.88 27.0933 114.88 27.2C114.88 27.3067 114.907 27.4267 114.96 27.56C115.013 27.5333 115.093 27.5067 115.2 27.48C115.333 27.4267 115.467 27.3867 115.6 27.36C115.733 25.44 116.04 23.5333 116.52 21.64C117 19.72 117.533 17.7867 118.12 15.84C118.493 14.5867 118.84 13.3067 119.16 12C119.507 10.6667 119.707 9.24 119.76 7.72C119.76 7.58666 119.8 7.52 119.88 7.52C119.907 7.52 119.92 7.54667 119.92 7.6C119.92 7.65333 119.947 7.70667 120 7.76C120.293 8.48 120.4 9.42666 120.32 10.6C120.24 11.7467 120.08 12.9467 119.84 14.2C119.6 15.4267 119.32 16.6267 119 17.8C118.68 18.9467 118.44 19.8667 118.28 20.56C117.987 21.68 117.653 22.8267 117.28 24C116.907 25.1467 116.547 26.2267 116.2 27.24C116.707 27.16 117.24 27.1067 117.8 27.08C118.387 27.0533 118.92 27.0533 119.4 27.08C119.88 27.08 120.293 27.0933 120.64 27.12C121.013 27.12 121.253 27.12 121.36 27.12C122.133 27.1467 122.933 27.24 123.76 27.4C124.587 27.56 125.307 27.6933 125.92 27.8C126.133 27.8533 126.24 27.9067 126.24 27.96C126.24 28.0133 126.2 28.0533 126.12 28.08C126.04 28.1067 125.973 28.1333 125.92 28.16C124.747 28.5333 123.56 28.6933 122.36 28.64C121.187 28.56 119.96 28.4533 118.68 28.32C118.2 28.2667 117.693 28.2267 117.16 28.2C116.653 28.1733 116.147 28.1867 115.64 28.24C115.133 28.2667 114.64 28.36 114.16 28.52C113.707 28.6533 113.293 28.88 112.92 29.2C112.333 27.68 112.08 26.08 112.16 24.4C112.24 22.72 112.48 21.04 112.88 19.36C113.227 17.8933 113.627 16.44 114.08 15C114.533 13.5333 114.947 12.12 115.32 10.76C115.72 9.37333 116.04 8.04 116.28 6.76C116.547 5.48 116.667 4.25333 116.64 3.08C116.693 2.92 116.733 2.84 116.76 2.84C116.787 2.81333 116.813 2.85333 116.84 2.96C116.867 3.04 116.893 3.09333 116.92 3.12ZM128.08 27C128.133 26.92 128.173 26.9333 128.2 27.04C128.253 27.12 128.253 27.2267 128.2 27.36C128.04 27.76 127.88 28.1067 127.72 28.4C127.587 28.6933 127.307 28.9867 126.88 29.28C126.693 29.4133 126.467 29.5333 126.2 29.64C125.933 29.7467 125.68 29.8267 125.44 29.88C125.2 29.9333 124.987 29.96 124.8 29.96C124.613 29.96 124.52 29.9067 124.52 29.8C124.493 29.72 124.6 29.6133 124.84 29.48C125.107 29.3467 125.293 29.2533 125.4 29.2C125.613 29.0667 125.827 28.9467 126.04 28.84C126.253 28.7067 126.467 28.56 126.68 28.4C126.893 28.1867 127.12 27.9733 127.36 27.76C127.627 27.5467 127.867 27.2933 128.08 27ZM128.28 28.2C128.36 28.0667 128.4 28.0533 128.4 28.16C128.4 28.2667 128.387 28.3467 128.36 28.4C127.96 29.3067 127.493 30 126.96 30.48C126.453 30.96 125.893 31.32 125.28 31.56C124.693 31.7733 124.067 31.9067 123.4 31.96C122.76 31.9867 122.12 32 121.48 32C119.693 31.9733 117.947 31.9067 116.24 31.8C114.56 31.6667 113.04 31.7333 111.68 32C111.627 32 111.573 32 111.52 32C111.467 32.0267 111.493 32 111.6 31.92C112.24 31.28 112.96 30.8933 113.76 30.76C114.56 30.6267 115.4 30.6133 116.28 30.72C117.187 30.8 118.107 30.9333 119.04 31.12C119.973 31.3067 120.88 31.4133 121.76 31.44C122.88 31.4667 124.027 31.24 125.2 30.76C126.4 30.2533 127.427 29.4 128.28 28.2ZM122.16 30.04C122.16 30.0933 122.107 30.1333 122 30.16C121.893 30.1867 121.813 30.2 121.76 30.2C121.36 30.28 120.813 30.3333 120.12 30.36C119.453 30.3867 118.84 30.3733 118.28 30.32C118.147 30.32 117.84 30.3067 117.36 30.28C116.88 30.2267 116.32 30.2133 115.68 30.24C115.067 30.24 114.44 30.3067 113.8 30.44C113.16 30.5733 112.613 30.8 112.16 31.12C112.053 31.2267 111.973 31.24 111.92 31.16C111.92 31.1333 111.933 31.08 111.96 31C112.013 30.8933 112.053 30.8267 112.08 30.8C112.453 30.2133 113.027 29.7733 113.8 29.48C114.6 29.16 115.4 28.96 116.2 28.88C117.053 28.8 117.973 28.8533 118.96 29.04C119.947 29.2 120.88 29.4133 121.76 29.68C121.787 29.68 121.853 29.72 121.96 29.8C122.093 29.88 122.16 29.96 122.16 30.04ZM135.491 18.8C135.571 18.4533 135.611 18.0533 135.611 17.6C135.637 17.1467 135.611 16.68 135.531 16.2C135.451 15.72 135.304 15.2667 135.091 14.84C134.904 14.3867 134.651 14 134.331 13.68C134.171 13.5733 134.077 13.52 134.051 13.52C133.944 13.52 133.944 13.6 134.051 13.76C134.211 14.1067 134.264 14.6533 134.211 15.4C134.184 16.12 134.104 16.88 133.971 17.68C133.837 18.4533 133.691 19.16 133.531 19.8C133.397 20.4133 133.317 20.7867 133.291 20.92C133.104 21.4 132.931 22 132.771 22.72C132.637 23.44 132.571 24.0267 132.571 24.48C132.544 24.5333 132.531 24.64 132.531 24.8C132.531 24.96 132.571 25.0533 132.651 25.08C132.677 25.08 132.731 25.0133 132.811 24.88C132.891 24.7467 132.957 24.6533 133.011 24.6C133.491 23.7467 133.944 22.8133 134.371 21.8C134.824 20.7867 135.197 19.7867 135.491 18.8ZM135.651 24.84C135.757 24.36 135.931 23.7467 136.171 23C136.411 22.2267 136.611 21.44 136.771 20.64C136.931 19.8133 137.011 19.0133 137.011 18.24C137.011 17.44 136.851 16.7867 136.531 16.28C136.424 16.1733 136.344 16.12 136.291 16.12C136.237 16.12 136.224 16.1733 136.251 16.28C136.251 17.2933 136.131 18.24 135.891 19.12C135.677 19.9733 135.437 20.8133 135.171 21.64C134.717 23 134.304 24.3333 133.931 25.64C133.557 26.92 133.397 28.24 133.451 29.6C133.451 29.68 133.451 29.7733 133.451 29.88C133.477 29.96 133.531 30 133.611 30C133.664 30 133.704 29.9733 133.731 29.92C133.757 29.8667 133.797 29.7867 133.851 29.68C134.117 29.04 134.424 28.2933 134.771 27.44C135.117 26.56 135.411 25.6933 135.651 24.84ZM132.811 32C132.304 31.4667 131.917 30.88 131.651 30.24C131.384 29.5733 131.197 28.9067 131.091 28.24C130.984 27.5467 130.957 26.8533 131.011 26.16C131.064 25.4667 131.171 24.8133 131.331 24.2C131.571 23.24 131.877 22.28 132.251 21.32C132.624 20.36 132.944 19.4133 133.211 18.48C133.477 17.52 133.624 16.5867 133.651 15.68C133.704 14.7467 133.517 13.84 133.091 12.96C133.011 12.8267 132.957 12.76 132.931 12.76C132.904 12.76 132.891 12.7867 132.891 12.84C132.891 12.8667 132.904 12.8933 132.931 12.92C133.011 13.72 132.957 14.5467 132.771 15.4C132.584 16.2533 132.344 17.1333 132.051 18.04C131.757 18.92 131.424 19.84 131.051 20.8C130.704 21.7333 130.411 22.6933 130.171 23.68C129.984 24.4 129.851 25.1333 129.771 25.88C129.717 26.6267 129.771 27.3733 129.931 28.12C130.091 28.84 130.384 29.5333 130.811 30.2C131.237 30.8667 131.851 31.48 132.651 32.04C132.704 32.0933 132.771 32.12 132.851 32.12C132.931 32.1467 132.917 32.1067 132.811 32ZM133.131 30.48C133.051 30.2667 132.957 30 132.851 29.68C132.771 29.36 132.704 29.0533 132.651 28.76C132.597 28.6533 132.531 28.4533 132.451 28.16C132.371 27.8667 132.304 27.72 132.251 27.72C132.144 27.72 132.064 27.8133 132.011 28C131.984 28.1867 131.971 28.4267 131.971 28.72C131.971 28.9867 131.984 29.28 132.011 29.6C132.064 29.8933 132.131 30.1467 132.211 30.36C132.371 30.8933 132.557 31.2667 132.771 31.48C133.011 31.6933 133.317 31.8667 133.691 32C133.851 32.08 133.971 32.12 134.051 32.12C134.077 32.12 134.077 32.0933 134.051 32.04C134.051 32.0133 134.037 32 134.011 32C133.824 31.7867 133.651 31.56 133.491 31.32C133.357 31.08 133.237 30.8 133.131 30.48ZM136.251 9.8C136.117 9.8 135.904 9.78667 135.611 9.76C135.344 9.70667 135.211 9.57333 135.211 9.36C135.211 9.28 135.331 9.18667 135.571 9.08C135.811 8.94667 136.077 8.77333 136.371 8.56C136.664 8.32 136.931 8.02667 137.171 7.68C137.411 7.30667 137.531 6.84 137.531 6.28C137.531 5.58667 137.397 5.06667 137.131 4.72C137.077 4.64 137.011 4.56 136.931 4.48C136.851 4.37333 136.824 4.30667 136.851 4.28C136.904 4.28 136.957 4.30667 137.011 4.36C137.091 4.38666 137.144 4.41333 137.171 4.44C137.704 4.73333 138.104 5.12 138.371 5.6C138.664 6.05333 138.811 6.49333 138.811 6.92C138.811 7.77333 138.611 8.46667 138.211 9C137.811 9.53333 137.157 9.8 136.251 9.8ZM134.771 8.2C134.451 8.33333 134.291 8.25333 134.291 7.96C134.291 7.74667 134.371 7.54667 134.531 7.36C134.691 7.14667 134.837 6.92 134.971 6.68C135.131 6.44 135.237 6.17333 135.291 5.88C135.344 5.56 135.264 5.17333 135.051 4.72C134.997 4.58667 134.904 4.44 134.771 4.28C134.637 4.12 134.597 4.02666 134.651 4C134.704 3.97333 134.811 4 134.971 4.08C135.157 4.13333 135.277 4.17333 135.331 4.2C135.784 4.41333 136.117 4.73333 136.331 5.16C136.571 5.58667 136.691 5.96 136.691 6.28C136.691 6.78667 136.477 7.21333 136.051 7.56C135.651 7.88 135.224 8.09333 134.771 8.2ZM133.611 6.04C133.611 5.90666 133.651 5.76 133.731 5.6C133.811 5.41333 133.944 5.32 134.131 5.32C134.264 5.32 134.371 5.41333 134.451 5.6C134.531 5.76 134.571 5.90666 134.571 6.04C134.571 6.14666 134.531 6.29333 134.451 6.48C134.371 6.64 134.264 6.72 134.131 6.72C133.944 6.72 133.811 6.64 133.731 6.48C133.651 6.32 133.611 6.17333 133.611 6.04ZM143.092 23.6C143.199 22.9333 143.372 22.2667 143.612 21.6C143.879 20.9067 144.185 20.28 144.532 19.72C144.879 19.1333 145.265 18.6533 145.692 18.28C146.119 17.88 146.572 17.6133 147.052 17.48C147.665 17.3467 148.119 17.32 148.412 17.4C148.732 17.48 148.919 17.6 148.972 17.76C149.052 18 149.052 18.24 148.972 18.48C148.892 18.72 148.772 18.9333 148.612 19.12C148.479 19.3067 148.319 19.48 148.132 19.64C147.972 19.7733 147.839 19.8533 147.732 19.88C147.599 19.9333 147.545 20 147.572 20.08C147.625 20.16 147.759 20.1733 147.972 20.12C148.212 20.0933 148.452 20 148.692 19.84C148.932 19.68 149.145 19.48 149.332 19.24C149.545 19 149.705 18.7467 149.812 18.48C149.919 18.1867 149.959 17.8933 149.932 17.6C149.879 17.3067 149.732 17.0533 149.492 16.84C149.279 16.6267 149.012 16.4667 148.692 16.36C148.372 16.2533 148.012 16.2 147.612 16.2C147.212 16.2 146.839 16.2667 146.492 16.4C145.799 16.6667 145.185 17.0667 144.652 17.6C144.145 18.1067 143.692 18.7067 143.292 19.4C142.919 20.0667 142.612 20.8 142.372 21.6C142.132 22.3733 141.932 23.16 141.772 23.96C141.559 24.9467 141.492 25.92 141.572 26.88C141.652 27.8133 141.959 28.5467 142.492 29.08C142.759 29.3467 143.105 29.5333 143.532 29.64C143.959 29.7467 144.412 29.8 144.892 29.8C145.372 29.7733 145.852 29.68 146.332 29.52C146.839 29.36 147.305 29.1467 147.732 28.88C147.839 28.8267 147.919 28.7733 147.972 28.72C148.052 28.6667 148.065 28.6267 148.012 28.6C147.985 28.5733 147.879 28.5867 147.692 28.64C146.385 28.96 145.372 29.0933 144.652 29.04C143.932 28.9867 143.412 28.7467 143.092 28.32C142.799 27.8933 142.665 27.2933 142.692 26.52C142.745 25.72 142.879 24.7467 143.092 23.6ZM143.572 31.84C142.719 31.7867 141.905 31.52 141.132 31.04C140.359 30.5333 139.825 29.9067 139.532 29.16C139.239 28.3867 139.052 27.6533 138.972 26.96C138.892 26.24 138.879 25.5467 138.932 24.88C139.039 23.4933 139.305 22.1067 139.732 20.72C140.185 19.3067 140.879 18.04 141.812 16.92C142.399 16.2267 142.985 15.6533 143.572 15.2C144.159 14.72 144.932 14.3467 145.892 14.08C146.372 13.9467 146.892 13.8667 147.452 13.84C148.012 13.8133 148.559 13.88 149.092 14.04C149.652 14.1733 150.172 14.4133 150.652 14.76C151.132 15.1067 151.559 15.5733 151.932 16.16C152.012 16.4267 152.092 16.56 152.172 16.56C152.252 16.48 152.252 16.3333 152.172 16.12C152.012 15.2667 151.572 14.5867 150.852 14.08C150.159 13.5733 149.332 13.2533 148.372 13.12C147.439 12.9867 146.465 13.04 145.452 13.28C144.439 13.4933 143.545 13.92 142.772 14.56C141.732 15.3867 140.852 16.3467 140.132 17.44C139.439 18.5067 138.892 19.64 138.492 20.84C138.092 22.04 137.852 23.28 137.772 24.56C137.692 25.84 137.785 27.0933 138.052 28.32C138.212 29.12 138.479 29.7733 138.852 30.28C139.252 30.76 139.705 31.1467 140.212 31.44C140.719 31.7067 141.265 31.88 141.852 31.96C142.439 32.04 143.025 32.0667 143.612 32.04C143.772 32.04 143.865 32.0267 143.892 32C143.945 31.9733 143.972 31.9467 143.972 31.92C143.972 31.8667 143.839 31.84 143.572 31.84ZM140.452 22.2C140.452 22.2267 140.439 22.2933 140.412 22.4C140.412 22.5067 140.399 22.6133 140.372 22.72C140.372 22.8267 140.372 22.9333 140.372 23.04C140.372 23.12 140.399 23.16 140.452 23.16C140.505 23.16 140.585 23.0267 140.692 22.76C140.825 22.4933 140.892 22.3467 140.892 22.32C141.585 20.72 142.412 19.3067 143.372 18.08C143.452 18 143.612 17.8267 143.852 17.56C144.092 17.2667 144.412 16.9733 144.812 16.68C145.212 16.3867 145.692 16.1333 146.252 15.92C146.812 15.7067 147.439 15.64 148.132 15.72C148.852 15.8 149.439 16.0667 149.892 16.52C150.345 16.9733 150.505 17.5067 150.372 18.12C150.265 18.7067 150.052 19.2 149.732 19.6C149.439 20 149.145 20.2667 148.852 20.4C148.639 20.48 148.572 20.5333 148.652 20.56C148.759 20.5867 148.839 20.6 148.892 20.6C149.212 20.5733 149.545 20.4533 149.892 20.24C150.265 20 150.585 19.7067 150.852 19.36C151.119 18.9867 151.305 18.5733 151.412 18.12C151.519 17.6667 151.479 17.1733 151.292 16.64C151.079 16.08 150.772 15.64 150.372 15.32C149.972 14.9733 149.532 14.7333 149.052 14.6C148.572 14.44 148.079 14.36 147.572 14.36C147.092 14.36 146.679 14.4 146.332 14.48C145.319 14.7467 144.465 15.1333 143.772 15.64C143.079 16.1467 142.505 16.7467 142.052 17.44C141.625 18.1067 141.292 18.8533 141.052 19.68C140.812 20.48 140.612 21.32 140.452 22.2ZM148.532 29.44C148.639 29.28 148.679 29.1733 148.652 29.12C148.652 29.0667 148.625 29.0533 148.572 29.08C148.519 29.08 148.439 29.12 148.332 29.2C148.252 29.2533 148.185 29.2933 148.132 29.32C147.599 29.6933 146.999 30 146.332 30.24C145.692 30.4533 144.972 30.56 144.172 30.56C143.772 30.56 143.292 30.4267 142.732 30.16C142.199 29.8667 141.785 29.5733 141.492 29.28C141.385 29.1467 141.265 29.0267 141.132 28.92C141.025 28.7867 140.932 28.7333 140.852 28.76C140.745 28.8667 140.745 29.0133 140.852 29.2C141.252 30.1333 141.759 30.7333 142.372 31C142.985 31.2667 143.639 31.4 144.332 31.4C144.732 31.4 145.132 31.3467 145.532 31.24C145.959 31.1333 146.359 31 146.732 30.84C147.132 30.6533 147.479 30.44 147.772 30.2C148.092 29.96 148.345 29.7067 148.532 29.44Z" fill="#727272"/>
</svg>
