<svg width="30" height="30" viewBox="0 0 30 30" fill="none" xmlns="http://www.w3.org/2000/svg">
<path d="M5.45455 0V19.0909H8.18182V2.72727H27.2727V24.5455C27.2727 26.0689 26.0689 27.2727 24.5455 27.2727C23.022 27.2727 21.8182 26.0689 21.8182 24.5455V20.4545H0V24.5455C0 27.5444 2.45561 30 5.45455 30H24.5455C27.5444 30 30 27.5444 30 24.5455V0H5.45455ZM10.9091 8.18182V10.9091H13.6364V8.18182H10.9091ZM16.3636 8.18182V10.9091H24.5455V8.18182H16.3636ZM10.9091 13.6364V16.3636H13.6364V13.6364H10.9091ZM16.3636 13.6364V16.3636H24.5455V13.6364H16.3636ZM2.72727 23.1818H19.0909V24.5455C19.0909 25.5469 19.3839 26.4631 19.858 27.2727H5.45455C3.93111 27.2727 2.72727 26.0689 2.72727 24.5455V23.1818Z" fill="#727272"/>
</svg>
