<svg width="30" height="30" viewBox="0 0 30 30" fill="none" xmlns="http://www.w3.org/2000/svg">
<path d="M27.7902 0L1.23884 6H13.9286L26.0491 3.26471L26.4174 6H28.5938L27.7902 0ZM0 7.41177V30H30V7.41177H0ZM5.29018 10.2353H24.7098C24.6722 10.4669 24.6429 10.6985 24.6429 10.9412C24.6429 12.8879 25.844 14.4706 27.3214 14.4706C27.5056 14.4706 27.6814 14.432 27.8571 14.3824V23.0294C27.6814 22.9798 27.5056 22.9412 27.3214 22.9412C25.844 22.9412 24.6429 24.5239 24.6429 26.4706C24.6429 26.7132 24.6722 26.9449 24.7098 27.1765H5.29018C5.32785 26.9449 5.35714 26.7132 5.35714 26.4706C5.35714 24.5239 4.15597 22.9412 2.67857 22.9412C2.49442 22.9412 2.31864 22.9798 2.14286 23.0294V14.3824C2.31864 14.432 2.49442 14.4706 2.67857 14.4706C4.15597 14.4706 5.35714 12.8879 5.35714 10.9412C5.35714 10.6985 5.32785 10.4669 5.29018 10.2353ZM15 11.6471C12.0536 11.6471 9.64286 14.8235 9.64286 18.7059C9.64286 22.5882 12.0536 25.7647 15 25.7647C17.9464 25.7647 20.3571 22.5882 20.3571 18.7059C20.3571 14.8235 17.9464 11.6471 15 11.6471ZM15 14.4706C16.7871 14.4706 18.2143 16.3511 18.2143 18.7059C18.2143 21.0607 16.7871 22.9412 15 22.9412C13.2129 22.9412 11.7857 21.0607 11.7857 18.7059C11.7857 16.3511 13.2129 14.4706 15 14.4706Z" fill="#727272"/>
</svg>
