<svg width="30" height="30" viewBox="0 0 30 30" fill="none" xmlns="http://www.w3.org/2000/svg">
<path d="M15.0195 0C9.96261 0 5.48114 2.51465 2.76983 6.36719L4.79844 7.8125C7.05624 4.59961 10.7867 2.5 15.0195 2.5C21.9295 2.5 27.5033 8.08106 27.5033 15C27.5033 21.9189 21.9295 27.5 15.0195 27.5C10.7867 27.5 7.06112 25.4004 4.79844 22.1875L2.76983 23.6328C5.48114 27.4854 9.96261 30 15.0195 30C23.2802 30 30 23.2715 30 15C30 6.72852 23.2802 0 15.0195 0ZM5.85176 9.10156L0.858257 14.1016L0 15L0.858257 15.8984L5.85176 20.8984L7.64629 19.1016L4.79844 16.25H20.013V13.75H4.79844L7.64629 10.8984L5.85176 9.10156Z" fill="#F66B0E"/>
</svg>
