<svg width="30" height="30" viewBox="0 0 30 30" fill="none" xmlns="http://www.w3.org/2000/svg">
<path d="M15 0C11.9318 0 9.87571 1.09994 8.02734 2.01979C6.17365 2.93965 4.47443 3.73783 1.36364 3.73783H0V4.98378C0 14.6009 3.55291 20.855 7.15376 24.6415C10.7546 28.428 14.4886 29.8102 14.4886 29.8102L15 30L15.5007 29.8151C15.5007 29.8151 19.2454 28.4474 22.8462 24.6658C26.4471 20.889 30 14.635 30 4.98378V3.73783H28.6364C25.5415 3.73783 23.8423 2.93965 21.9886 2.01979C20.1296 1.09994 18.0682 0 15 0ZM15 2.49189C17.3864 2.49189 18.7713 3.26087 20.6889 4.20993C22.2976 5.00811 24.4229 5.76249 27.1822 6.02531C26.9212 14.4598 23.869 19.8037 20.7901 23.0305C17.9936 25.9653 15.6552 26.9825 15 27.2502C14.3501 26.9776 12.0064 25.9458 9.20987 23.0062C6.13104 19.7696 3.07884 14.4257 2.82315 6.02531C5.58771 5.76249 7.71839 5.00811 9.32706 4.20993C11.2393 3.26087 12.6136 2.49189 15 2.49189ZM15 7.47567C12.7415 7.47567 10.9091 9.1499 10.9091 11.2135C10.9091 12.6736 11.8466 14.0023 13.3008 14.6058L12.2727 21.1811H17.7273L16.6992 14.6058C18.1534 14.0023 19.0909 12.6736 19.0909 11.2135C19.0909 9.1499 17.2585 7.47567 15 7.47567Z" fill="#727272"/>
</svg>
